<?xml version="1.0" encoding="utf-8"?>
<!-- Generator: Adobe Illustrator 17.0.0, SVG Export Plug-In . SVG Version: 6.00 Build 0)  -->
<!DOCTYPE svg PUBLIC "-//W3C//DTD SVG 1.1//EN" "http://www.w3.org/Graphics/SVG/1.1/DTD/svg11.dtd">
<svg version="1.1" id="Слой_1" xmlns="http://www.w3.org/2000/svg" xmlns:xlink="http://www.w3.org/1999/xlink" x="0px" y="0px"
	 width="28.346px" height="28.346px" viewBox="0 0 28.346 28.346" enable-background="new 0 0 28.346 28.346" xml:space="preserve">
<path fill="#050606" d="M874.292-5191.285c0.74-0.966,1.327-1.743,1.76-2.327c3.122-4.198,4.476-6.879,4.061-8.048l-0.162-0.274
	c-0.108-0.165-0.388-0.315-0.839-0.452c-0.451-0.137-1.029-0.159-1.732-0.068l-7.797,0.056c-0.18-0.018-0.361-0.014-0.541,0.013
	c-0.181,0.028-0.298,0.056-0.352,0.083c-0.055,0.028-0.099,0.05-0.135,0.068l-0.108,0.082c-0.09,0.055-0.19,0.15-0.298,0.288
	s-0.199,0.296-0.271,0.479c-0.848,2.208-1.814,4.261-2.897,6.159c-0.668,1.131-1.282,2.113-1.841,2.943
	c-0.559,0.832-1.029,1.443-1.408,1.834c-0.379,0.393-0.722,0.708-1.029,0.944c-0.307,0.238-0.542,0.337-0.704,0.301
	c-0.162-0.036-0.316-0.072-0.46-0.11c-0.253-0.164-0.456-0.386-0.609-0.67c-0.154-0.282-0.257-0.638-0.312-1.067
	c-0.054-0.428-0.086-0.798-0.094-1.109c-0.01-0.31-0.005-0.747,0.014-1.313c0.018-0.566,0.027-0.949,0.027-1.149
	c0-0.693,0.014-1.447,0.041-2.259c0.027-0.812,0.05-1.455,0.068-1.93c0.018-0.474,0.027-0.976,0.027-1.506
	c0-0.528-0.032-0.944-0.095-1.246c-0.063-0.301-0.159-0.593-0.284-0.876c-0.127-0.282-0.312-0.502-0.555-0.656
	c-0.244-0.155-0.546-0.278-0.907-0.37c-0.957-0.22-2.175-0.336-3.655-0.356c-3.357-0.035-5.514,0.184-6.471,0.657
	c-0.379,0.202-0.722,0.475-1.029,0.822c-0.325,0.402-0.37,0.622-0.135,0.656c1.083,0.165,1.85,0.558,2.301,1.178l0.163,0.329
	c0.126,0.238,0.252,0.657,0.379,1.259c0.126,0.602,0.207,1.269,0.244,1.999c0.09,1.333,0.09,2.472,0,3.422
	c-0.09,0.95-0.176,1.688-0.257,2.217c-0.081,0.529-0.203,0.958-0.365,1.286c-0.163,0.33-0.271,0.53-0.325,0.603
	c-0.055,0.073-0.099,0.119-0.135,0.137c-0.235,0.091-0.478,0.137-0.731,0.137c-0.253,0-0.56-0.129-0.921-0.384
	c-0.361-0.255-0.736-0.606-1.123-1.054c-0.389-0.447-0.826-1.073-1.313-1.876c-0.487-0.802-0.993-1.751-1.516-2.847l-0.433-0.793
	c-0.271-0.51-0.641-1.254-1.11-2.231c-0.469-0.976-0.885-1.92-1.245-2.833c-0.145-0.382-0.361-0.674-0.65-0.875l-0.135-0.082
	c-0.09-0.073-0.235-0.15-0.433-0.232c-0.199-0.082-0.406-0.141-0.623-0.179l-7.418,0.055c-0.758,0-1.272,0.174-1.543,0.521
	l-0.108,0.164c-0.054,0.092-0.081,0.238-0.081,0.438c0,0.202,0.054,0.447,0.163,0.739c1.083,2.573,2.261,5.056,3.533,7.445
	c1.273,2.392,2.378,4.318,3.316,5.777c0.939,1.461,1.895,2.838,2.87,4.134c0.975,1.295,1.62,2.125,1.936,2.49
	c0.316,0.366,0.564,0.64,0.744,0.821l0.677,0.658c0.433,0.438,1.07,0.962,1.909,1.574c0.839,0.612,1.768,1.214,2.789,1.806
	c1.019,0.594,2.207,1.077,3.56,1.451c1.353,0.375,2.671,0.526,3.953,0.452h3.113c0.632-0.055,1.11-0.254,1.435-0.602l0.108-0.137
	c0.072-0.108,0.14-0.278,0.203-0.505c0.063-0.228,0.095-0.479,0.095-0.753c-0.019-0.784,0.041-1.493,0.176-2.122
	c0.135-0.629,0.289-1.103,0.46-1.424c0.172-0.318,0.365-0.587,0.582-0.807c0.216-0.22,0.37-0.352,0.46-0.396
	c0.09-0.045,0.163-0.077,0.216-0.097c0.433-0.146,0.943-0.004,1.53,0.424c0.587,0.43,1.137,0.958,1.652,1.588
	c0.514,0.629,1.132,1.337,1.854,2.122c0.722,0.784,1.353,1.368,1.895,1.751l0.542,0.33c0.361,0.218,0.83,0.418,1.408,0.602
	c0.577,0.182,1.083,0.228,1.516,0.137l6.931-0.11c0.686,0,1.218-0.113,1.597-0.342c0.379-0.227,0.604-0.479,0.677-0.752
	c0.071-0.274,0.076-0.583,0.014-0.931c-0.063-0.346-0.127-0.588-0.19-0.725c-0.063-0.136-0.122-0.252-0.176-0.342
	c-0.903-1.643-2.626-3.66-5.171-6.05l-0.055-0.055l-0.027-0.028l-0.027-0.027h-0.027c-1.156-1.113-1.886-1.861-2.193-2.246
	c-0.559-0.729-0.686-1.468-0.379-2.216C872.073-5188.264,872.884-5189.46,874.292-5191.285z"/>
<path fill="#050606" d="M20.322,15.56L12.85,26.309c-0.691,0.684-1.811,0.684-2.501,0c-0.69-0.683-0.69-1.792,0-2.476l6.221-9.511
	l-6.22-9.511c-0.69-0.683-0.69-1.792,0-2.476c0.69-0.684,1.81-0.684,2.501,0l7.471,10.749c0.345,0.342,0.518,0.79,0.518,1.237
	C20.84,14.77,20.667,15.218,20.322,15.56z"/>
</svg>
