<?xml version="1.0" encoding="utf-8"?>
<!-- Generator: Adobe Illustrator 17.0.0, SVG Export Plug-In . SVG Version: 6.00 Build 0)  -->
<!DOCTYPE svg PUBLIC "-//W3C//DTD SVG 1.1//EN" "http://www.w3.org/Graphics/SVG/1.1/DTD/svg11.dtd">
<svg version="1.1" id="Слой_1" xmlns="http://www.w3.org/2000/svg" xmlns:xlink="http://www.w3.org/1999/xlink" x="0" y="0"
	 width="113.386" height="113.386" viewBox="0 0 113.386 113.386" enable-background="new 0 0 113.386 113.386"
	 xml:space="preserve">
<path display="none" fill="#fff" d="M916.812-5148.765c0.74-0.967,1.327-1.743,1.76-2.328c3.122-4.198,4.476-6.879,4.061-8.048
	l-0.162-0.273c-0.108-0.165-0.389-0.315-0.839-0.453c-0.451-0.136-1.029-0.158-1.732-0.068l-7.797,0.056
	c-0.18-0.019-0.361-0.014-0.542,0.012c-0.181,0.028-0.298,0.056-0.352,0.083c-0.055,0.027-0.099,0.05-0.135,0.068l-0.108,0.083
	c-0.09,0.054-0.19,0.15-0.298,0.287s-0.199,0.296-0.271,0.479c-0.848,2.209-1.814,4.262-2.897,6.159
	c-0.668,1.131-1.282,2.114-1.841,2.943c-0.559,0.832-1.029,1.443-1.408,1.834c-0.379,0.392-0.722,0.707-1.029,0.944
	c-0.307,0.238-0.542,0.338-0.704,0.301c-0.163-0.036-0.316-0.072-0.46-0.11c-0.253-0.163-0.456-0.386-0.609-0.67
	c-0.154-0.282-0.257-0.639-0.312-1.067c-0.054-0.429-0.086-0.798-0.094-1.11c-0.01-0.31-0.005-0.747,0.014-1.313
	c0.018-0.565,0.027-0.948,0.027-1.149c0-0.693,0.014-1.446,0.041-2.258c0.027-0.812,0.05-1.455,0.068-1.93
	c0.018-0.474,0.027-0.976,0.027-1.506c0-0.528-0.032-0.944-0.095-1.246c-0.063-0.301-0.159-0.592-0.284-0.876
	c-0.127-0.282-0.311-0.501-0.555-0.656c-0.244-0.155-0.546-0.278-0.907-0.37c-0.957-0.219-2.175-0.336-3.655-0.356
	c-3.357-0.035-5.514,0.184-6.471,0.657c-0.379,0.202-0.722,0.475-1.029,0.822c-0.325,0.402-0.37,0.622-0.135,0.657
	c1.083,0.165,1.85,0.558,2.301,1.178l0.163,0.328c0.126,0.238,0.252,0.657,0.379,1.259c0.126,0.602,0.207,1.269,0.244,1.998
	c0.09,1.333,0.09,2.472,0,3.422c-0.09,0.95-0.176,1.688-0.257,2.217c-0.081,0.529-0.203,0.958-0.365,1.286
	c-0.163,0.33-0.271,0.53-0.325,0.604c-0.055,0.073-0.099,0.119-0.135,0.137c-0.235,0.09-0.478,0.137-0.731,0.137
	c-0.253,0-0.56-0.129-0.921-0.384c-0.361-0.255-0.736-0.606-1.123-1.054c-0.389-0.447-0.826-1.072-1.313-1.876
	c-0.487-0.802-0.993-1.752-1.516-2.847l-0.433-0.794c-0.271-0.51-0.641-1.254-1.11-2.23c-0.469-0.976-0.885-1.92-1.245-2.833
	c-0.145-0.382-0.361-0.674-0.65-0.876l-0.135-0.082c-0.09-0.073-0.235-0.15-0.434-0.232c-0.199-0.082-0.406-0.141-0.623-0.178
	l-7.418,0.054c-0.758,0-1.272,0.174-1.543,0.521l-0.108,0.163c-0.054,0.092-0.081,0.238-0.081,0.438
	c0,0.202,0.054,0.448,0.163,0.739c1.083,2.574,2.261,5.056,3.533,7.445c1.273,2.392,2.378,4.318,3.317,5.778
	c0.939,1.461,1.895,2.838,2.87,4.134c0.975,1.295,1.62,2.125,1.936,2.49c0.316,0.366,0.564,0.64,0.744,0.821l0.677,0.658
	c0.433,0.438,1.07,0.962,1.909,1.574c0.839,0.612,1.768,1.214,2.789,1.806c1.019,0.594,2.207,1.077,3.56,1.451
	c1.353,0.375,2.671,0.526,3.953,0.452h3.113c0.632-0.054,1.11-0.253,1.435-0.602l0.108-0.137c0.072-0.108,0.14-0.278,0.203-0.505
	c0.063-0.228,0.095-0.479,0.095-0.753c-0.018-0.784,0.041-1.493,0.176-2.122c0.135-0.63,0.289-1.104,0.46-1.424
	c0.172-0.318,0.365-0.587,0.582-0.807c0.216-0.22,0.37-0.352,0.46-0.396c0.09-0.045,0.162-0.077,0.216-0.097
	c0.433-0.146,0.943-0.004,1.53,0.424c0.586,0.43,1.137,0.958,1.652,1.588c0.514,0.629,1.132,1.337,1.854,2.122
	c0.722,0.785,1.354,1.369,1.895,1.752l0.542,0.33c0.361,0.218,0.83,0.418,1.408,0.602c0.577,0.182,1.083,0.228,1.516,0.137
	l6.931-0.11c0.686,0,1.218-0.113,1.597-0.342c0.379-0.226,0.604-0.479,0.677-0.752c0.072-0.274,0.076-0.583,0.014-0.93
	c-0.064-0.346-0.127-0.588-0.19-0.725c-0.063-0.136-0.122-0.251-0.176-0.342c-0.903-1.643-2.626-3.66-5.171-6.05l-0.055-0.054
	l-0.027-0.028l-0.027-0.027h-0.027c-1.156-1.113-1.886-1.861-2.193-2.245c-0.559-0.729-0.686-1.469-0.379-2.216
	C914.592-5145.744,915.404-5146.94,916.812-5148.765z"/>
<path display="none" fill="#fff" d="M62.841,58.079L55.37,68.828c-0.691,0.684-1.811,0.684-2.501,0
	c-0.69-0.683-0.69-1.792,0-2.476l6.221-9.511l-6.221-9.511c-0.69-0.683-0.69-1.792,0-2.476c0.691-0.684,1.81-0.684,2.501,0
	l7.471,10.749c0.345,0.342,0.518,0.79,0.518,1.237C63.359,57.289,63.186,57.738,62.841,58.079z"/>
<path display="none" fill="none" stroke="#fff" stroke-width="5" stroke-miterlimit="10" d="M30.016,68.695
	c0,0.002,0.828,1.124-0.154,2.038c-0.992,7.584,6.77,17.322,8.489,17.895c0.044-0.004,31.412,0.088,34.795-0.02 M72.485,88.202
	c2.983-1.6,6.543-4.167,8.438-7.021c4.313-6.493,2.375-14.833-1.778-20.888c-2.471-3.604-3.731-6.308-4.067-10.807
	c-0.252-3.363,1.156-7.246,1.156-7.246c-1.745,1.168-1.764,1.042-2.916,1.998c-5.995,4.976-7.561,9.954-7.744,10.598
	c-0.012,0.046-0.02,0.072-0.02,0.072l0.02-0.072c0,0,4.685-18.405-8.357-26.977c-1.082-0.711-3.579-2.123-3.579-2.123
	s6.476,15.942-5.119,25.399c-2.282-9.352-14.33-9.468-14.33-9.468s0.926,3.259,1.075,4.029c1.952,10.165-3.338,12.882-4.553,22.491
	c0.138-1.103-0.611-0.164-0.695,0.505"/>
<path display="none" fill="none" stroke="#fff" stroke-width="5" stroke-miterlimit="10" d="M78.036,50.22l-0.273-0.096
	l-1.063-2.501l0.115-0.257c3.222-7.199,2.999-7.413,2.465-7.935l-4.296-4.13c-0.176-0.172-0.485-0.293-0.751-0.293
	c-0.242,0-0.973,0-7.318,2.832l-0.255,0.113l-2.617-1.039l-0.106-0.257c-2.983-7.28-3.289-7.28-4.031-7.28H53.84
	c-0.739,0-1.076,0-3.843,7.293l-0.104,0.266l-2.604,1.046L47.04,37.88c-4.294-1.784-6.802-2.689-7.455-2.689
	c-0.265,0-0.575,0.118-0.751,0.289l-4.3,4.142c-0.545,0.531-0.772,0.752,2.617,7.8l0.125,0.261l-1.065,2.499l-0.26,0.099
	c-7.56,2.88-7.56,3.16-7.56,3.91v5.859c0,0.752,0,1.064,7.576,3.741l0.271,0.093l1.065,2.491l-0.114,0.255
	c-3.221,7.202-3.016,7.396-2.468,7.934l4.289,4.136c0.18,0.17,0.491,0.292,0.757,0.292c0.24,0,0.97,0,7.319-2.83l0.254-0.118
	l2.62,1.044l0.101,0.258c2.986,7.279,3.292,7.279,4.035,7.279h6.069c0.762,0,1.077,0,3.846-7.299l0.104-0.266l2.607-1.039l0.249,0.1
	c4.291,1.79,6.796,2.692,7.446,2.692c0.264,0,0.576-0.113,0.755-0.289l4.307-4.151c0.542-0.533,0.767-0.751-2.629-7.792
	l-0.126-0.264l1.063-2.488l0.255-0.098c7.573-2.895,7.573-3.177,7.573-3.928v-5.856C85.612,53.196,85.612,52.886,78.036,50.22z
	 M57.001,66.502c-5.422,0-9.833-4.263-9.833-9.501c0-5.237,4.411-9.495,9.833-9.495c5.419,0,9.83,4.259,9.83,9.495
	C66.831,62.238,62.42,66.502,57.001,66.502z"/>
<path display="none" fill="#fff" d="M79.912,33.059c-12.088-12.082-31.759-12.08-43.848,0c-12.089,12.08-12.089,31.738,0,43.817
	c6.762,6.759,16.365,10.02,25.848,8.821l10.703,7.9c0.358,0.265,0.788,0.403,1.224,0.403c0.183,0,0.366-0.024,0.546-0.074
	c0.61-0.168,1.109-0.606,1.354-1.188l3.053-7.259c0.441-1.049-0.052-2.256-1.101-2.696c-1.05-0.44-2.258,0.051-2.698,1.101
	l-2.037,4.843l-9.272-6.843c-0.442-0.327-0.999-0.466-1.541-0.378c-8.467,1.314-17.122-1.505-23.164-7.542
	c-10.482-10.475-10.482-27.518,0-37.993c10.481-10.474,27.537-10.476,38.02,0c6.661,6.657,9.327,16.108,7.13,25.28
	c-0.005,0.022-0.011,0.044-0.015,0.067c-0.308,1.269-0.71,2.52-1.184,3.695L78.115,76.46c-0.441,1.048,0.052,2.255,1.101,2.696
	c1.049,0.44,2.257-0.052,2.698-1.1l4.826-11.475c0.563-1.396,1.029-2.848,1.364-4.235c0.031-0.097,0.054-0.195,0.07-0.293
	C90.639,51.526,87.557,40.699,79.912,33.059z"/>
<path display="none" fill="#fff" d="M71.048,45.322H46.226c-0.911,0-1.649,0.73-1.649,1.64c0,0.91,0.738,1.641,1.649,1.641
	h24.823c0.911,0,1.649-0.73,1.649-1.641C72.697,46.052,71.959,45.322,71.048,45.322z"/>
<path display="none" fill="#fff" d="M72.697,56.393c0-0.91-0.738-1.641-1.649-1.641H46.226c-0.911,0-1.649,0.73-1.649,1.641
	c0,0.91,0.738,1.64,1.649,1.64h24.823C71.959,58.033,72.697,57.303,72.697,56.393z"/>
<path display="none" fill="#fff" d="M46.226,64.184c-0.911,0-1.649,0.73-1.649,1.64c0,0.91,0.738,1.64,1.649,1.64h14.19
	c0.911,0,1.649-0.73,1.649-1.64c0-0.91-0.738-1.64-1.649-1.64H46.226z"/>
<path fill="#fff" d="M50.033,61.426c3.588,3.569,7.741,6.978,9.371,5.331c2.334-2.355,3.771-4.406,8.952-0.267
	c5.18,4.143,1.224,6.93-1.037,9.214c-2.61,2.634-12.382,0.184-22.069-9.449c-9.686-9.636-12.205-19.41-9.594-22.045
	c2.262-2.283,5.014-6.268,9.183-1.107c4.172,5.159,2.136,6.615-0.198,8.971C43.012,53.72,46.445,57.855,50.033,61.426z
	 M55.236,44.398c0,0-1.082-0.17-1.84,0.591c-0.78,0.782-0.814,2.128,0.008,2.951c0.486,0.487,1.171,0.591,1.171,0.591
	c1.335,0.251,3.348,0.677,5.49,2.821c2.141,2.146,2.565,4.162,2.815,5.501c0,0,0.104,0.687,0.59,1.174
	c0.821,0.822,2.165,0.789,2.945,0.007c0.757-0.76,0.589-1.844,0.589-1.844c-0.424-2.71-1.735-5.542-3.986-7.798
	C60.766,46.138,57.941,44.824,55.236,44.398z M65.388,46.017c3.926,3.933,5.599,8.398,5.055,12.016c0,0-0.19,1.146,0.557,1.894
	c0.841,0.842,2.173,0.794,2.959,0.006c0.505-0.507,0.616-1.331,0.616-1.331c0.45-3.125-0.116-9.415-6.233-15.544
	c-6.116-6.129-12.392-6.696-15.512-6.246c0,0-0.822,0.11-1.328,0.618c-0.786,0.788-0.834,2.123,0.006,2.965
	c0.747,0.749,1.89,0.557,1.89,0.557C57.008,40.406,61.464,42.083,65.388,46.017z"/>
</svg>
