<?xml version="1.0" encoding="utf-8"?>
<!-- Generator: Adobe Illustrator 17.0.0, SVG Export Plug-In . SVG Version: 6.00 Build 0)  -->
<!DOCTYPE svg PUBLIC "-//W3C//DTD SVG 1.1//EN" "http://www.w3.org/Graphics/SVG/1.1/DTD/svg11.dtd">
<svg version="1.1" id="Слой_1" xmlns="http://www.w3.org/2000/svg" xmlns:xlink="http://www.w3.org/1999/xlink" x="0px" y="0px"
	 width="113.386px" height="113.386px" viewBox="0 0 113.386 113.386" enable-background="new 0 0 113.386 113.386"
	 xml:space="preserve">
<path display="none" fill="#5a5a5a" d="M916.812-5148.765c0.74-0.967,1.327-1.743,1.76-2.328c3.122-4.198,4.476-6.879,4.061-8.048
	l-0.162-0.273c-0.108-0.165-0.389-0.315-0.839-0.453c-0.451-0.136-1.029-0.158-1.732-0.068l-7.797,0.056
	c-0.18-0.019-0.361-0.014-0.542,0.012c-0.181,0.028-0.298,0.056-0.352,0.083c-0.055,0.027-0.099,0.05-0.135,0.068l-0.108,0.083
	c-0.09,0.054-0.19,0.15-0.298,0.287s-0.199,0.296-0.271,0.479c-0.848,2.209-1.814,4.262-2.897,6.159
	c-0.668,1.131-1.282,2.114-1.841,2.943c-0.559,0.832-1.029,1.443-1.408,1.834c-0.379,0.392-0.722,0.707-1.029,0.944
	c-0.307,0.238-0.542,0.338-0.704,0.301c-0.163-0.036-0.316-0.072-0.46-0.11c-0.253-0.163-0.456-0.386-0.609-0.67
	c-0.154-0.282-0.257-0.639-0.312-1.067c-0.054-0.429-0.086-0.798-0.094-1.11c-0.01-0.31-0.005-0.747,0.014-1.313
	c0.018-0.565,0.027-0.948,0.027-1.149c0-0.693,0.014-1.446,0.041-2.258c0.027-0.812,0.05-1.455,0.068-1.93
	c0.018-0.474,0.027-0.976,0.027-1.506c0-0.528-0.032-0.944-0.095-1.246c-0.063-0.301-0.159-0.592-0.284-0.876
	c-0.127-0.282-0.311-0.501-0.555-0.656c-0.244-0.155-0.546-0.278-0.907-0.37c-0.957-0.219-2.175-0.336-3.655-0.356
	c-3.357-0.035-5.514,0.184-6.471,0.657c-0.379,0.202-0.722,0.475-1.029,0.822c-0.325,0.402-0.37,0.622-0.135,0.657
	c1.083,0.165,1.85,0.558,2.301,1.178l0.163,0.328c0.126,0.238,0.252,0.657,0.379,1.259c0.126,0.602,0.207,1.269,0.244,1.998
	c0.09,1.333,0.09,2.472,0,3.422c-0.09,0.95-0.176,1.688-0.257,2.217c-0.081,0.529-0.203,0.958-0.365,1.286
	c-0.163,0.33-0.271,0.53-0.325,0.604c-0.055,0.073-0.099,0.119-0.135,0.137c-0.235,0.09-0.478,0.137-0.731,0.137
	c-0.253,0-0.56-0.129-0.921-0.384c-0.361-0.255-0.736-0.606-1.123-1.054c-0.389-0.447-0.826-1.072-1.313-1.876
	c-0.487-0.802-0.993-1.752-1.516-2.847l-0.433-0.794c-0.271-0.51-0.641-1.254-1.11-2.23c-0.469-0.976-0.885-1.92-1.245-2.833
	c-0.145-0.382-0.361-0.674-0.65-0.876l-0.135-0.082c-0.09-0.073-0.235-0.15-0.434-0.232c-0.199-0.082-0.406-0.141-0.623-0.178
	l-7.418,0.054c-0.758,0-1.272,0.174-1.543,0.521l-0.108,0.163c-0.054,0.092-0.081,0.238-0.081,0.438
	c0,0.202,0.054,0.448,0.163,0.739c1.083,2.574,2.261,5.056,3.533,7.445c1.273,2.392,2.378,4.318,3.317,5.778
	c0.939,1.461,1.895,2.838,2.87,4.134c0.975,1.295,1.62,2.125,1.936,2.49c0.316,0.366,0.564,0.64,0.744,0.821l0.677,0.658
	c0.433,0.438,1.07,0.962,1.909,1.574c0.839,0.612,1.768,1.214,2.789,1.806c1.019,0.594,2.207,1.077,3.56,1.451
	c1.353,0.375,2.671,0.526,3.953,0.452h3.113c0.632-0.054,1.11-0.253,1.435-0.602l0.108-0.137c0.072-0.108,0.14-0.278,0.203-0.505
	c0.063-0.228,0.095-0.479,0.095-0.753c-0.018-0.784,0.041-1.493,0.176-2.122c0.135-0.63,0.289-1.104,0.46-1.424
	c0.172-0.318,0.365-0.587,0.582-0.807c0.216-0.22,0.37-0.352,0.46-0.396c0.09-0.045,0.162-0.077,0.216-0.097
	c0.433-0.146,0.943-0.004,1.53,0.424c0.586,0.43,1.137,0.958,1.652,1.588c0.514,0.629,1.132,1.337,1.854,2.122
	c0.722,0.785,1.354,1.369,1.895,1.752l0.542,0.33c0.361,0.218,0.83,0.418,1.408,0.602c0.577,0.182,1.083,0.228,1.516,0.137
	l6.931-0.11c0.686,0,1.218-0.113,1.597-0.342c0.379-0.226,0.604-0.479,0.677-0.752c0.072-0.274,0.076-0.583,0.014-0.93
	c-0.064-0.346-0.127-0.588-0.19-0.725c-0.063-0.136-0.122-0.251-0.176-0.342c-0.903-1.643-2.626-3.66-5.171-6.05l-0.055-0.054
	l-0.027-0.028l-0.027-0.027h-0.027c-1.156-1.113-1.886-1.861-2.193-2.245c-0.559-0.729-0.686-1.469-0.379-2.216
	C914.592-5145.744,915.404-5146.94,916.812-5148.765z"/>
<path display="none" fill="#5a5a5a" d="M62.841,58.079L55.37,68.828c-0.691,0.684-1.811,0.684-2.501,0
	c-0.69-0.683-0.69-1.792,0-2.476l6.221-9.511l-6.221-9.511c-0.69-0.683-0.69-1.792,0-2.476c0.691-0.684,1.81-0.684,2.501,0
	l7.471,10.749c0.345,0.342,0.518,0.79,0.518,1.237C63.359,57.289,63.186,57.738,62.841,58.079z"/>
<path fill="none" stroke="#5a5a5a" stroke-width="5" stroke-miterlimit="10" d="M30.016,68.695c0,0.002,0.828,1.124-0.154,2.038
	c-0.992,7.584,6.77,17.322,8.489,17.895c0.044-0.004,31.412,0.088,34.795-0.02 M72.485,88.202c2.983-1.6,6.543-4.167,8.438-7.021
	c4.313-6.493,2.375-14.833-1.778-20.888c-2.471-3.604-3.731-6.308-4.067-10.807c-0.252-3.363,1.156-7.246,1.156-7.246
	c-1.745,1.168-1.764,1.042-2.916,1.998c-5.995,4.976-7.561,9.954-7.744,10.598c-0.012,0.046-0.02,0.072-0.02,0.072l0.02-0.072
	c0,0,4.685-18.405-8.357-26.977c-1.082-0.711-3.579-2.123-3.579-2.123s6.476,15.942-5.119,25.399
	c-2.282-9.352-14.33-9.468-14.33-9.468s0.926,3.259,1.075,4.029c1.952,10.165-3.338,12.882-4.553,22.491
	c0.138-1.103-0.611-0.164-0.695,0.505"/>
</svg>
