<?xml version="1.0" encoding="utf-8"?>
<!-- Generator: Adobe Illustrator 17.0.0, SVG Export Plug-In . SVG Version: 6.00 Build 0)  -->
<!DOCTYPE svg PUBLIC "-//W3C//DTD SVG 1.1//EN" "http://www.w3.org/Graphics/SVG/1.1/DTD/svg11.dtd">
<svg version="1.1" id="_x2014_лой_1" xmlns="http://www.w3.org/2000/svg" xmlns:xlink="http://www.w3.org/1999/xlink" x="0px"
	 y="0px" width="359.5px" height="153px" viewBox="0 0 359.5 153" enable-background="new 0 0 359.5 153" xml:space="preserve">
<g>
	<defs>
		<rect id="SVGID_1_" x="59.238" y="44.137" width="164.4" height="84"/>
	</defs>
	<clipPath id="SVGID_2_">
		<use xlink:href="#SVGID_1_"  overflow="visible"/>
	</clipPath>
</g>
<path fill-rule="evenodd" clip-rule="evenodd" fill="white" d="M139.057,43.717c-20.872,20.238-34.215,43.275-52.655,61.522
	c-0.033,1.107-0.442,2.62-1.227,4.54c-1.126,2.615-2.171,6.258-5.067,7.402c-3.067,1.211-4.749-1.113-4.956-3.856
	c-0.065-0.867,0.208-3.024,0.82-6.471c0.613-3.447,0.868-5.835,0.768-7.165c-0.013-0.174-0.033-0.434-0.059-0.78
	c-0.026-0.347-0.046-0.607-0.059-0.781c-0.192-2.543-0.121-5.659,0.197-9.345c0.458-4.833,0.611-28.243,2.614-33.77
	c0.65-1.793,0.969-3.154,0.957-4.083c-1.97-1.491-12.328,0.668-15.281,0.89c-2.485,0.187-4.089,0.512-4.81,0.973
	c0.373,0.321,0.797,0.928,1.271,1.823c-0.876-0.05-2.273-0.846-4.191-2.387c-1.301-1.065-2.604-2.158-3.91-3.281l-0.15-1.994
	c0.351,0.031,0.787,0.028,1.307-0.012c0.346-0.026,0.879-0.095,1.597-0.208c0.718-0.112,1.251-0.181,1.598-0.208
	c0.289-0.022,0.972,0.174,2.05,0.587c1.078,0.413,1.79,0.606,2.137,0.58l11.966-0.902c2.832-0.214,6.072-1.199,9.718-2.956
	c3.646-1.757,5.614-2.647,5.903-2.669c1.445-0.109,2.93,0.303,4.453,1.234c0.074,0.982-0.137,2.045-0.632,3.187
	c-0.201,0.422-0.748,0.87-1.643,1.345c-1.228,0.674-1.925,1.075-2.089,1.204c-1.198,1.079-2.282,2.497-3.254,4.257
	c-3.595,6.847-6.335,37.595,1.147,37.776c1.047,0.025,2.004-0.758,4.004-2.254c13.346-9.981,43.295-49.59,51.194-50.974
	C156.412,34.55,145.607,37.346,139.057,43.717L139.057,43.717z M150.491,78.484l-0.13-0.295c-1.579-1.031-7.763-0.451-9.939-0.021
	c-4.725,0.987-8.607,1.916-11.646,2.794c-3.039,0.872-4.559,1.498-4.559,1.873c0,0.382,0.317,0.951,0.951,1.707
	c0.864,0.929,1.326,1.455,1.383,1.57h0.734c1.362-1.634,2.141-3.419,4.148-2.917c0.519,0.13,0.836,0.238,0.951,0.324
	c-1.642,2.571-2.896,4.48-3.76,5.726c-1.268,0.259-2.103,0.893-2.507,1.909c-0.951,0.432-1.656,0.792-2.118,1.08
	c-3.553,1.841-9.055,5.802-11.408,1.008c-2.627-5.404,3.377-10.654,6.871-14.239c2.392-2.467,14.19-14.455,17.199-14.455
	c0.461,0,0.85,0.187,1.167,0.562c-0.634,1.584-1.123,2.65-1.469,3.198h0.734c3.668-2.62,5.915-4.251,8.254-7.822
	c-0.605-0.634-1.542-0.951-2.809-0.951c-1.152,0-2.434,0.403-3.846,1.21c-4.966,2.759-10.016,7.054-14.174,10.811
	c-2.25,2.033-5.179,4.712-7.87,7.525c-2.606,2.724-4.987,5.576-6.304,8.097c-1.697,3.261-2.445,4.873-0.302,8.139
	c2.557,3.76,8.678,1.921,12.229,0.086c2.362-1.21,3.933-2.074,4.71-2.593c0.259,0.547,0.519,0.879,0.778,0.994
	c-1.556,4.669-2.202,6.986-3.673,11.949c-1.037,3.5-1.556,5.654-1.556,6.46c0,0.605,0.159,1.167,0.475,1.686
	c-0.461,1.93-0.691,2.895-0.691,2.895c0,0.259,0.137,0.663,0.41,1.21c0.274,0.547,0.526,0.879,0.756,0.994
	c0.317-0.173,0.562-0.259,0.735-0.259c0.576,0,1.03-0.159,1.361-0.475c0.332-0.317,0.684-0.648,1.059-0.994
	c0.259-2.161,0.49-3.789,0.691-4.883c-0.029-0.058-0.432-0.605-1.21-1.642c-0.432-0.547-0.648-1.181-0.648-1.901
	c0-0.951,0.965-4.192,2.896-9.723c1.815-5.186,3.097-8.556,3.846-10.112c1.701-2.017,5.31-5.969,6.179-8.081
	C144.728,79.016,145.146,79.629,150.491,78.484L150.491,78.484z M166.005,88.186c0.029-0.202-0.173-0.533-0.605-0.994
	c-1.914,1.237-2.684,1.368-4.624,2.636c-2.078,1.36-4.75,2.938-7.346,2.938c-0.605,0-0.908-0.389-0.908-1.167
	c0-0.691,0.18-1.556,0.54-2.593c0.36-1.037,0.742-1.844,1.145-2.42c0.115-0.115,0.763-0.663,1.945-1.642
	c0.835-0.72,1.253-1.397,1.253-2.031c0-1.067-0.706-1.247-1.52-1.06c-1.118,0.257-3.559,1.987-3.665,3.048
	c-1.729,1.556-3.457,3.112-5.186,4.667c-2.651,2.305-4.408,3.457-5.272,3.457c-0.144,0-0.259-0.072-0.346-0.216
	c1.378-3.356,3.312-6.032,5.661-9.377c0.72-1.037,1.282-1.642,1.686-1.815v-1.253c-0.115-0.029-0.403-0.137-0.864-0.324
	c-1.609-0.654-2.312,0.997-3.284,2.398c-1.476,2.241-6.603,9.206-5.747,11.689c0.361,1.047,1.157,1.447,2.094,1.471
	c1.186,0.029,2.599-0.542,3.653-1.168c0.133-0.079,4.89-4.022,5.186-4.3c0.029,3.313,1.383,4.97,4.062,4.97
	c0.437,0,1.281-0.3,2.228-0.705c1.599-0.684,3.491-1.669,4.211-2.017c-0.259,0-0.389-0.13-0.389-0.389
	c0.864-0.461,1.469-0.691,1.815-0.691c-0.086,0,0.072,0.043,0.475,0.13C163.786,89.64,165.054,88.56,166.005,88.186L166.005,88.186z
	 M168.468,77.641c-1.623,4.487-0.374,3.273-3.284,6.007c-0.778,0.72-1.455,1.21-2.031,1.47c0.226,1.803,3.426-0.338,3.759-0.691
	c0.23,0.201,0.346,0.374,0.346,0.518c0,0.605-0.317,1.354-0.951,2.247c-0.633,0.029-1.022,0.058-1.166,0.086
	c-0.009,0.012-3.926,2.621-4.97,3.76c-5.056,5.515,8.378,10.678,9.377-1.08c0.115-1.095,0.274-1.8,0.475-2.117
	c1.387-0.185,7.276-1.921,8.254-2.42c1.556-0.836,2.377-1.268,2.463-1.297v-0.994l-10.804,2.463
	c-0.201-0.403-0.303-0.936-0.303-1.599c0-0.778,0.317-1.685,0.951-2.722c0.835-1.354,1.325-2.204,1.469-2.55
	c0.086,0.086,0.23,0.13,0.432,0.13c0.173,0,0.446-0.195,0.821-0.584c0.971-1.008,0.593-1.825-0.562-2.463
	c-0.547-0.302-0.878-0.453-0.994-0.453C170.369,75.351,169.275,76.114,168.468,77.641L168.468,77.641z M167.258,89.266
	c0,1.095-0.418,2.261-1.253,3.5c-0.513,0.754-3.126,3.196-3.63,1.685c-0.755-2.269,2.23-4.491,3.889-5.402
	c0.345-0.115,0.619-0.187,0.821-0.216C167.2,89.237,167.258,89.381,167.258,89.266L167.258,89.266z M200.576,80.083
	c-0.029,0.029-0.057,0.043-0.086,0.043c-0.115,0.058-0.432,0.173-0.951,0.339c-1.729,0.511-2.794,0.763-3.198,0.763
	c-1.031,0-7.309,0.422-7.714,0.259c-0.36-0.144-0.641-0.216-0.843-0.216c-0.346,0-1.023,0.878-2.031,2.636
	c-2.212,3.87-3.117,6.403-4.105,10.976c-1.247,1.144-3.544,1.637-3.544-0.173c0-0.519,0.439-1.491,1.318-2.917
	c1.359-2.205,3.388-7.309,4.127-9.615c-0.605,0.173-1.188,0.353-1.75,0.54c-0.562,0.187-1.001,0.742-1.318,1.664
	c-0.058,0.173-0.029,0.418,0.087,0.735c-0.144,0.317-0.245,0.49-0.303,0.518c-0.057,0.029-0.274,0.043-0.648,0.043
	c-0.23,0-0.67-0.331-1.318-0.994c-0.648-0.662-0.972-1.123-0.972-1.383c0-1.066,0.85-2.017,2.549-2.852
	c1.469-0.691,2.824-1.037,4.062-1.037c0.087,0,0.202,0.022,0.346,0.065c0.144,0.043,0.259,0.065,0.346,0.065
	c0.576,0,1.066-0.36,1.469-1.081c1.098-1.952,4.772-9.362,5.402-10.026c0.259-0.518,0.59-1.296,0.994-2.334
	c0.029-0.317,0.115-0.792,0.259-1.426c0.144-0.346,0.706-0.518,1.685-0.518c0.144,0,0.418,0.187,0.821,0.562
	c0.404,0.375,0.605,0.633,0.605,0.778c0-0.029-0.23,0.763-0.692,2.377c-0.806,0.519-1.613,1.541-2.42,3.068
	c-1.083,2.114-3.217,6.256-4.581,8.081c0,0.115,0.13,0.288,0.389,0.519c0.385-0.123,6.563-0.303,7.692-0.303
	c1.301,0,3.54-0.171,4.321-0.129V80.083L200.576,80.083z M215.96,79.845l-0.432-0.872c-0.864-0.079-1.858-0.122-2.982-0.122
	c-4.561,0-7.882-0.19-13.007,0.043c0.029,0.835-0.23,1.556-0.778,2.16c-0.414,0.458-11.415,15.557-5.099,15.557
	c1.844,0,3.515-0.994,5.013-2.982c0.974-1.606,3.854-6.558,4.321-8.427c0.201-0.749,0.389-1.844,0.562-3.285
	c0,0,0.36-0.331,1.08-0.994c0.519-0.461,0.922-0.691,1.21-0.691c0.93,0,5.059,0.3,5.575-0.151c0.115-0.101,0.23-0.151,0.346-0.151
	C213.158,79.932,214.554,79.845,215.96,79.845L215.96,79.845z M201.138,83.173c0-0.144-0.029-0.353-0.086-0.626
	c-0.058-0.274-0.086-0.468-0.086-0.583c-0.691,0.432-1.483,1.34-2.377,2.722c-1.037,1.556-1.786,2.55-2.247,2.982
	c-1.21,2.477-1.815,4.062-1.815,4.754c0,1.576-0.195,1.216,1.34,0.778c0.72-0.547,1.779-2.146,3.176-4.797
	C200.439,85.751,201.138,84.008,201.138,83.173z"/>
<path fill-rule="evenodd" clip-rule="evenodd" fill="#9CCC4B" d="M304.53,76.833h-73.079c-5.117,0-9.303,4.187-9.303,9.303v0.001
	c0,5.117,4.186,9.303,9.303,9.303h73.079c5.117,0,9.303-4.187,9.303-9.303v-0.001C313.834,81.02,309.647,76.833,304.53,76.833z"/>
<path fill-rule="evenodd" clip-rule="evenodd" stroke="#000000" stroke-width="0.216" stroke-miterlimit="22.9256" d="
	M232.478,90.849v-7.471h-1.783v-1.049h1.783v-2.982h1.147v2.982h1.98v1.049h-1.98v7.471H232.478L232.478,90.849z M243.504,90.849
	v-8.52h1.081v1.223c0.161-0.298,0.319-0.521,0.48-0.669c0.197-0.197,0.431-0.355,0.702-0.472c0.306-0.131,0.737-0.218,1.294-0.262
	v1.136c-0.489,0.052-0.888,0.167-1.196,0.344c-0.453,0.287-0.787,0.642-0.999,1.062c-0.145,0.273-0.216,0.737-0.216,1.393v4.765
	H243.504L243.504,90.849z M263.588,82.329v8.517h-1.114v-1.603c-0.207,0.358-0.442,0.658-0.704,0.904
	c-0.699,0.598-1.559,0.898-2.583,0.898c-0.683,0-1.376-0.17-2.081-0.508c-0.704-0.339-1.261-0.77-1.671-1.292
	c-0.257-0.336-0.462-0.743-0.614-1.221c-0.15-0.478-0.227-0.955-0.227-1.436c0-0.8,0.205-1.54,0.612-2.223
	c0.41-0.683,0.964-1.224,1.669-1.617c0.699-0.401,1.458-0.601,2.28-0.601c0.513,0,0.997,0.079,1.453,0.24
	c0.456,0.161,0.849,0.394,1.18,0.697c0.257,0.224,0.486,0.516,0.688,0.874v-1.63H263.588L263.588,82.329z M259.216,83.246
	c-0.642,0-1.229,0.15-1.761,0.451c-0.535,0.303-0.953,0.713-1.259,1.229c-0.303,0.516-0.456,1.081-0.456,1.696
	c0,0.595,0.156,1.149,0.464,1.657c0.308,0.511,0.726,0.915,1.253,1.218c0.527,0.3,1.095,0.45,1.71,0.45
	c0.587,0,1.136-0.15,1.646-0.45c0.508-0.303,0.912-0.707,1.212-1.218c0.298-0.508,0.448-1.062,0.448-1.657
	c0-0.598-0.147-1.158-0.44-1.68c-0.295-0.524-0.691-0.937-1.193-1.24C260.338,83.4,259.797,83.246,259.216,83.246L259.216,83.246z
	 M275.004,90.849l-3.574-8.52h1.232l2.952,7.056l2.949-7.056h1.24l-3.599,8.52H275.004L275.004,90.849z M296.128,86.933h-7.703
	c0.058,0.459,0.148,0.819,0.27,1.079c0.167,0.374,0.404,0.71,0.721,1.008c0.314,0.295,0.672,0.522,1.079,0.686
	c0.404,0.161,0.825,0.243,1.262,0.243c0.928,0,1.723-0.317,2.389-0.95c0.251-0.246,0.464-0.549,0.639-0.912H296
	c-0.213,0.489-0.404,0.857-0.576,1.103c-0.169,0.246-0.41,0.497-0.718,0.759c-0.399,0.347-0.863,0.617-1.39,0.808
	c-0.527,0.194-1.057,0.29-1.592,0.29c-0.803,0-1.543-0.197-2.22-0.587c-0.677-0.393-1.215-0.931-1.611-1.614
	c-0.396-0.682-0.595-1.428-0.595-2.239c0-0.806,0.197-1.551,0.592-2.234c0.393-0.683,0.931-1.224,1.608-1.622
	c0.68-0.401,1.417-0.601,2.212-0.601c0.669,0,1.308,0.145,1.909,0.431c0.601,0.29,1.117,0.696,1.543,1.223
	c0.404,0.503,0.685,1.076,0.838,1.72C296.055,85.764,296.096,86.234,296.128,86.933L296.128,86.933z M288.463,85.884h6.491
	c-0.085-0.486-0.287-0.931-0.601-1.335c-0.308-0.404-0.696-0.724-1.163-0.956c-0.464-0.232-0.953-0.347-1.466-0.347
	c-0.522,0-1.007,0.109-1.458,0.325c-0.451,0.216-0.833,0.524-1.147,0.931C288.805,84.901,288.586,85.363,288.463,85.884
	L288.463,85.884z M304.465,90.849V79.347h1.147v11.502H304.465z"/>
</svg>
