<?xml version="1.0" encoding="utf-8"?>
<!-- Generator: Adobe Illustrator 17.0.0, SVG Export Plug-In . SVG Version: 6.00 Build 0)  -->
<!DOCTYPE svg PUBLIC "-//W3C//DTD SVG 1.1//EN" "http://www.w3.org/Graphics/SVG/1.1/DTD/svg11.dtd">
<svg version="1.1" id="Слой_1" xmlns="http://www.w3.org/2000/svg" xmlns:xlink="http://www.w3.org/1999/xlink" x="0px" y="0px"
	 width="56.693px" height="56.693px" viewBox="0 0 56.693 56.693" enable-background="new 0 0 56.693 56.693" xml:space="preserve">
<path display="none" fill="#060708" d="M48.975,26.424c0.74-0.967,1.327-1.743,1.76-2.327c3.123-4.198,4.476-6.879,4.061-8.048
	l-0.163-0.274c-0.108-0.165-0.389-0.315-0.839-0.452c-0.451-0.137-1.029-0.158-1.733-0.068l-7.797,0.056
	c-0.18-0.018-0.361-0.014-0.542,0.012c-0.181,0.028-0.298,0.056-0.352,0.083c-0.055,0.028-0.099,0.05-0.135,0.068l-0.108,0.082
	c-0.09,0.055-0.19,0.15-0.298,0.288c-0.108,0.137-0.199,0.296-0.271,0.479c-0.848,2.209-1.814,4.262-2.897,6.159
	c-0.668,1.131-1.282,2.114-1.841,2.943c-0.559,0.831-1.029,1.443-1.408,1.834c-0.379,0.392-0.722,0.707-1.029,0.944
	c-0.307,0.238-0.542,0.338-0.704,0.301c-0.162-0.036-0.316-0.072-0.46-0.11c-0.253-0.163-0.456-0.386-0.609-0.67
	c-0.154-0.282-0.257-0.638-0.312-1.067c-0.054-0.428-0.086-0.798-0.094-1.11c-0.01-0.31-0.005-0.747,0.014-1.314
	c0.018-0.566,0.027-0.948,0.027-1.149c0-0.693,0.014-1.447,0.041-2.258c0.027-0.812,0.05-1.455,0.068-1.93
	c0.018-0.473,0.027-0.976,0.027-1.506c0-0.528-0.032-0.944-0.095-1.245c-0.063-0.301-0.159-0.593-0.284-0.876
	c-0.127-0.282-0.312-0.502-0.555-0.657c-0.244-0.155-0.546-0.278-0.907-0.37c-0.957-0.219-2.175-0.336-3.655-0.356
	c-3.357-0.035-5.514,0.184-6.471,0.657c-0.379,0.202-0.722,0.475-1.029,0.822c-0.325,0.402-0.37,0.621-0.135,0.656
	c1.083,0.165,1.85,0.558,2.301,1.178l0.163,0.328c0.126,0.238,0.252,0.657,0.379,1.259c0.126,0.602,0.207,1.269,0.244,1.998
	c0.09,1.333,0.09,2.472,0,3.422c-0.09,0.95-0.176,1.688-0.257,2.217c-0.081,0.529-0.203,0.958-0.365,1.286
	c-0.163,0.33-0.271,0.53-0.325,0.603c-0.054,0.073-0.099,0.119-0.135,0.137c-0.235,0.091-0.478,0.137-0.731,0.137
	c-0.253,0-0.56-0.129-0.921-0.384c-0.361-0.255-0.736-0.606-1.123-1.054c-0.389-0.447-0.826-1.073-1.313-1.876
	c-0.487-0.802-0.993-1.752-1.516-2.847l-0.433-0.794c-0.271-0.51-0.641-1.254-1.11-2.231c-0.469-0.976-0.885-1.92-1.245-2.833
	c-0.145-0.382-0.361-0.674-0.65-0.876l-0.135-0.082c-0.09-0.073-0.235-0.15-0.434-0.232c-0.199-0.082-0.406-0.141-0.623-0.179
	l-7.418,0.054c-0.758,0-1.272,0.174-1.543,0.521L2.95,15.938c-0.054,0.092-0.081,0.238-0.081,0.439c0,0.202,0.054,0.447,0.163,0.739
	c1.083,2.573,2.261,5.056,3.533,7.445c1.273,2.392,2.378,4.318,3.317,5.778c0.939,1.461,1.895,2.838,2.87,4.134
	c0.975,1.296,1.62,2.126,1.936,2.49c0.316,0.366,0.564,0.64,0.744,0.821l0.677,0.658c0.433,0.438,1.069,0.962,1.909,1.574
	c0.839,0.612,1.768,1.214,2.789,1.806c1.019,0.594,2.207,1.077,3.56,1.451c1.353,0.375,2.671,0.526,3.953,0.452h3.113
	c0.632-0.054,1.11-0.254,1.435-0.601l0.108-0.137c0.072-0.108,0.14-0.278,0.203-0.506c0.063-0.228,0.095-0.479,0.095-0.753
	c-0.019-0.784,0.041-1.493,0.176-2.122c0.135-0.63,0.289-1.103,0.46-1.424c0.171-0.318,14.986-3.488,15.202-3.707
	c0.216-0.22-14.251,2.549-14.16,2.504c0.09-0.045,0.163-0.077,0.216-0.097c0.433-0.146,0.943-0.004,1.53,0.424
	c0.586,0.43,1.137,0.958,1.652,1.588c0.514,0.63,1.132,1.337,1.854,2.122c0.722,0.784,1.354,1.368,1.895,1.752l0.542,0.33
	c0.361,0.218,0.83,0.418,1.408,0.602c0.577,0.182,1.083,0.228,1.516,0.137l6.931-0.11c0.686,0,1.218-0.113,1.597-0.342
	c0.379-0.226,0.604-0.479,0.677-0.752c0.071-0.274,0.076-0.583,0.014-0.93c-0.063-0.346-0.127-0.588-0.19-0.725
	c-0.063-0.137-0.122-0.252-0.176-0.342c-0.903-1.643-2.626-3.66-5.171-6.05l-0.055-0.055l-0.027-0.028l-0.027-0.027h-0.027
	c-1.156-1.113-1.886-1.861-2.193-2.245c-0.559-0.729-0.686-1.468-0.379-2.216C46.756,29.445,47.568,28.249,48.975,26.424z"/>
<path display="none" fill="#060708" d="M25.76,16.435c0,0.983,0,5.369,0,5.369h-3.891v6.566h3.891v19.511h7.992v-19.51h5.363
	c0,0,0.502-3.148,0.746-6.591c-0.698,0-6.079,0-6.079,0s0-3.821,0-4.489c0-0.671,0.871-1.574,1.733-1.574c0.86,0,2.674,0,4.354,0
	c0-0.894,0-3.982,0-6.835c-2.243,0-4.796,0-5.921,0C25.562,8.881,25.76,15.453,25.76,16.435z"/>
<path display="none" fill="#060708" d="M41.012,39.261h-2.503l0.012-1.498c0-0.666,0.53-1.21,1.179-1.21h0.16
	c0.65,0,1.182,0.544,1.182,1.21L41.012,39.261z M31.625,36.05c-0.635,0-1.154,0.44-1.154,0.978v7.288
	c0,0.537,0.519,0.975,1.154,0.975c0.637,0,1.157-0.438,1.157-0.975v-7.288C32.782,36.489,32.263,36.05,31.625,36.05z M46.869,31.974
	v13.861c0,3.326-2.798,6.046-6.217,6.046H15.086c-3.42,0-6.217-2.72-6.217-6.046V31.974c0-3.325,2.797-6.046,6.217-6.046h25.566
	C44.072,25.927,46.869,28.649,46.869,31.974z M16.792,47.341L16.79,32.739l3.169,0.001v-2.164l-8.448-0.013v2.127l2.637,0.007
	v14.643H16.792z M26.292,34.914H23.65v7.797c0,1.128,0.066,1.692-0.004,1.891c-0.215,0.605-1.181,1.247-1.557,0.065
	c-0.064-0.205-0.007-0.831-0.008-1.901l-0.011-7.852h-2.627l0.008,7.728c0.002,1.185-0.026,2.067,0.009,2.47
	c0.064,0.708,0.042,1.535,0.68,2.007c1.188,0.883,3.467-0.132,4.037-1.393l-0.005,1.61l2.122,0.003L26.292,34.914L26.292,34.914z
	 M34.745,43.843l-0.006-6.491c-0.002-2.473-1.797-3.954-4.234-1.953l0.01-4.825l-2.639,0.004l-0.013,16.653l2.17-0.033l0.197-1.037
	C33.005,48.786,34.749,46.989,34.745,43.843z M43.014,42.983l-1.981,0.01c-0.001,0.081-0.004,0.175-0.005,0.277v1.139
	c0,0.609-0.489,1.107-1.083,1.107h-0.388c-0.595,0-1.083-0.497-1.083-1.107v-0.127v-1.253v-1.617h4.537v-1.76
	c0-1.286-0.032-2.572-0.135-3.308c-0.324-2.326-3.492-2.695-5.092-1.504c-0.502,0.371-0.886,0.87-1.109,1.538
	c-0.225,0.669-0.337,1.583-0.337,2.744v3.869C36.338,49.425,43.918,48.515,43.014,42.983z M32.851,21.975
	c0.136,0.341,0.348,0.618,0.635,0.827c0.284,0.206,0.647,0.309,1.081,0.309c0.381,0,0.719-0.106,1.012-0.324
	c0.293-0.217,0.54-0.543,0.741-0.977l-0.05,1.069h2.946V9.968h-2.319v10.048c0,0.544-0.435,0.99-0.966,0.99
	c-0.528,0-0.965-0.446-0.965-0.99V9.968h-2.42v8.707c0,1.109,0.02,1.849,0.052,2.224C32.632,21.272,32.715,21.629,32.851,21.975z
	 M23.926,14.683c0-1.239,0.101-2.207,0.3-2.905c0.201-0.695,0.561-1.253,1.083-1.675c0.521-0.423,1.187-0.635,1.997-0.635
	c0.681,0,1.265,0.138,1.753,0.408c0.49,0.272,0.868,0.624,1.13,1.059c0.267,0.437,0.448,0.885,0.545,1.344
	c0.099,0.466,0.148,1.167,0.148,2.114v3.264c0,1.198-0.046,2.079-0.137,2.638c-0.09,0.561-0.282,1.081-0.58,1.569
	c-0.294,0.482-0.674,0.843-1.134,1.074c-0.465,0.232-0.997,0.346-1.598,0.346c-0.671,0-1.237-0.095-1.703-0.295
	c-0.468-0.198-0.829-0.497-1.086-0.895c-0.26-0.398-0.443-0.883-0.553-1.447c-0.111-0.564-0.164-1.414-0.164-2.546L23.926,14.683
	L23.926,14.683z M26.233,19.812c0,0.731,0.528,1.327,1.171,1.327c0.643,0,1.169-0.596,1.169-1.327V12.94
	c0-0.73-0.526-1.328-1.169-1.328c-0.643,0-1.171,0.598-1.171,1.328V19.812z M18.082,23.282h2.779l0.003-9.901l3.283-8.482h-3.039
	l-1.745,6.299l-1.77-6.317h-3.008l3.493,8.504L18.082,23.282z"/>
<path fill="#060708" d="M13.002,8.879h29.734c2.824,0,5.134,2.09,5.134,5.134v29.735c0,3.044-2.31,5.134-5.134,5.134H13.002
	c-2.825,0-5.135-2.09-5.135-5.134V14.014C7.867,10.97,10.177,8.879,13.002,8.879L13.002,8.879z M37.008,13.324
	c-0.991,0-1.8,0.81-1.8,1.801v4.311c0,0.99,0.81,1.801,1.8,1.801h4.521c0.99,0,1.8-0.811,1.8-1.801v-4.311
	c0-0.991-0.81-1.801-1.8-1.801H37.008L37.008,13.324z M43.349,25.797h-3.521c0.333,1.088,0.514,2.24,0.514,3.432
	c0,6.654-5.567,12.048-12.435,12.048c-6.867,0-12.434-5.394-12.434-12.048c0-1.192,0.18-2.344,0.514-3.432h-3.674v16.898
	c0,0.875,0.715,1.59,1.59,1.59H41.76c0.874,0,1.59-0.715,1.59-1.59L43.349,25.797L43.349,25.797z M27.907,21.01
	c-4.437,0-8.034,3.485-8.034,7.784c0,4.3,3.597,7.785,8.034,7.785c4.437,0,8.035-3.485,8.035-7.785
	C35.941,24.495,32.344,21.01,27.907,21.01z"/>
</svg>
