<?xml version="1.0" encoding="utf-8"?>
<!-- Generator: Adobe Illustrator 17.0.0, SVG Export Plug-In . SVG Version: 6.00 Build 0)  -->
<!DOCTYPE svg PUBLIC "-//W3C//DTD SVG 1.1//EN" "http://www.w3.org/Graphics/SVG/1.1/DTD/svg11.dtd">
<svg version="1.1" id="Layer_1" xmlns="http://www.w3.org/2000/svg" xmlns:xlink="http://www.w3.org/1999/xlink" x="0px" y="0px"
	 width="235px" height="148px" viewBox="0 0 235 148" enable-background="new 0 0 235 148" xml:space="preserve">
<polygon fill="#12a3ff" points="113.897,122.251 114.729,122.251 121.063,122.251 127.563,113.585 128.563,110.085 130.896,107.917 
	130.896,102.917 137.23,98.417 137.23,89.251 135.73,88.417 135.896,85.251 140.063,77.085 141.73,77.085 148.563,64.751 
	148.563,61.585 147.23,60.917 143.896,62.085 142.73,62.585 141.896,61.917 142.063,60.917 140.396,58.917 138.396,58.917 
	136.73,56.917 135.563,54.251 134.396,51.751 132.73,49.085 132.563,44.917 132.063,42.751 131.23,41.917 130.356,36.926 
	129.376,35.417 127.73,35.417 126.563,35.417 125.23,34.417 121.063,34.417 117.896,34.417 118.396,33.083 116.229,33.083 
	113.897,32.417 114.896,35.251 113.897,35.917 113.897,34.751 110.229,34.083 110.229,33.251 108.23,32.417 105.563,32.417 
	105.563,31.083 105.563,29.751 105.563,28.251 105.563,27.417 105.563,26.417 105.563,25.917 103.396,25.083 95.969,25.083 
	93.563,27.083 90.73,28.083 88.73,29.083 88.73,28.251 88.73,27.251 87.063,27.251 87.063,28.417 86.063,30.583 83.23,32.417 
	83.23,34.251 83.23,35.917 83.23,38.251 75.563,43.251 75.563,54.583 75.563,56.751 75.563,58.417 77.896,60.917 81.396,64.417 
	81.563,66.583 83.896,68.251 84.063,69.751 91.896,70.251 94.23,68.583 98.896,68.083 104.063,70.251 104.896,78.251 
	107.563,82.251 108.23,85.751 109.063,87.583 108.896,90.417 108.896,93.417 106.563,95.085 107.396,101.751 108.896,105.917 
	109.729,113.417 110.563,119.585 112.063,122.251 113.396,122.917 "/>
</svg>
