<?xml version="1.0" encoding="utf-8"?>
<!-- Generator: Adobe Illustrator 17.0.0, SVG Export Plug-In . SVG Version: 6.00 Build 0)  -->
<!DOCTYPE svg PUBLIC "-//W3C//DTD SVG 1.1//EN" "http://www.w3.org/Graphics/SVG/1.1/DTD/svg11.dtd">
<svg version="1.1" id="Layer_1" xmlns="http://www.w3.org/2000/svg" xmlns:xlink="http://www.w3.org/1999/xlink" x="0px" y="0px"
	 width="235px" height="148px" viewBox="0 0 235 148" enable-background="new 0 0 235 148" xml:space="preserve">
<g>
	<defs>
		<path fill="#12a3ff" id="SVGID_1_" d="M79.562,27.916c-1.1,0-2.341,0.6-2.757,1.335c-0.418,0.732-1.359,1.315-2.091,1.294
			c-0.734-0.023-1.569,0.4-1.856,0.938c-0.288,0.538-0.601,1.296-0.697,1.687c-0.097,0.389-0.283,1.151-0.415,1.693
			c-0.133,0.543-0.803,0.987-1.491,0.987c-0.687,0-1.44-0.222-1.671-0.492c-0.232-0.271-0.898-0.702-1.48-0.957
			c-0.581-0.257-1.407-0.46-1.835-0.453c-0.427,0.006-1.248,0.02-1.823,0.028c-0.575,0.009-1.71,0.624-2.523,1.365l-0.066,0.06
			c-0.812,0.742-1.477,2.025-1.477,2.851c0,0.823,0.188,1.799,0.416,2.165c0.23,0.366,0.23,0.667,0,0.667
			c-0.228,0-0.416,0.412-0.416,0.917c0,0.504,0.108,1.172,0.24,1.483c0.131,0.313,0.431,0.989,0.666,1.504
			c0.235,0.516,0.945,0.883,1.579,0.817c0.633-0.064,1.174-0.416,1.2-0.779c0.026-0.363,0.46-0.812,0.965-0.994
			c0.504-0.184,0.939-0.51,0.967-0.725c0.026-0.215,0.386-0.203,0.8,0.026c0.412,0.23,0.675,0.755,0.583,1.167
			c-0.092,0.413-0.097,1.148-0.012,1.635c0.085,0.487,0.048,1.699-0.084,2.695c-0.13,0.996-0.05,1.91,0.18,2.031
			c0.229,0.122,0.545,0.638,0.701,1.145c0.157,0.509,0.325,1.322,0.372,1.808c0.049,0.486,0.557,1.121,1.132,1.41
			c0.574,0.289,1.494,0.526,2.043,0.526c0.55,0,1.207,0.263,1.46,0.584c0.253,0.319,0.966,1.069,1.584,1.666
			c0.618,0.596,1.462,1.271,1.874,1.501c0.413,0.228,1.016,0.416,1.341,0.416c0.325,0,0.591-0.339,0.591-0.75
			c0-0.412,0.596-1.088,1.325-1.5c0.729-0.413,1.832-0.9,2.451-1.083c0.618-0.184,1.125-0.672,1.125-1.084
			c0-0.412,0.316-0.45,0.702-0.083c0.386,0.366,1.342,0.666,2.125,0.666c0.783,0,1.835,0.15,2.34,0.333
			c0.504,0.184,0.917,0.672,0.917,1.084c0,0.412-0.263,1.163-0.583,1.667c-0.322,0.505-1.234,1.328-2.029,1.833
			c-0.795,0.504-1.445,1.329-1.445,1.833c0,0.504-0.475,1.442-1.055,2.083c-0.58,0.642-1.28,1.692-1.554,2.335
			c-0.276,0.64-1.268,1.165-2.205,1.165c-0.938,0-1.893,0.4-2.123,0.891c-0.229,0.491-0.586,1.23-0.794,1.643
			c-0.208,0.414-0.378,1.101-0.378,1.526c0,0.426,0.899,0.737,1.998,0.691l0.003-0.001c1.099-0.046,2.298-0.119,2.664-0.165
			c0.367-0.047,1.222,0.553,1.899,1.333c0.678,0.778,1.302,1.979,1.389,2.666c0.085,0.688,0.769,1.812,1.517,2.501
			c0.748,0.687,1.624,0.836,1.945,0.332c0.322-0.504,0.723-0.027,0.891,1.06l0.552,3.547c0.169,1.087,0.757,2.756,1.305,3.709
			l1.171,2.034c0.548,0.953,1.035,2.371,1.082,3.15c0.045,0.779,0.383,1.904,0.749,2.501c0.367,0.596,0.854,0.97,1.083,0.832
			c0.23-0.138,0.68-0.062,1.001,0.168c0.32,0.229,0.545,0.903,0.499,1.499c-0.045,0.596,0.33,1.008,0.835,0.917
			c0.504-0.093,1.142-0.242,1.416-0.334c0.276-0.092,0.463-0.504,0.416-0.916c-0.046-0.412-0.309-0.824-0.583-0.916
			c-0.276-0.093-0.538-0.654-0.583-1.25c-0.046-0.597-0.346-1.234-0.666-1.418c-0.322-0.184-0.558-1.232-0.527-2.332l0.052-1.835
			c0.032-1.101,0.659-2.667,1.395-3.485l0.324-0.361c0.737-0.817,1.789-1.562,2.339-1.652c0.549-0.093,1.224-0.579,1.5-1.083
			c0.274-0.504,1.136-1.555,1.913-2.33l1.339-1.34c0.777-0.777,1.863-1.264,2.413-1.081c0.55,0.184,1.45,0.334,2,0.334
			c0.55,0,1.038,0.788,1.085,1.751c0.045,0.962,0.495,1.92,1,2.127c0.504,0.207,1.027,1.069,1.165,1.916
			c0.138,0.847,0.813,1.613,1.5,1.706c0.688,0.091,1.288,0.691,1.334,1.334c0.047,0.641,0.186,2.061,0.31,3.152l0.55,4.859
			c0.123,1.093,0.487,2.138,0.808,2.321c0.32,0.183,0.807,0.82,1.083,1.416c0.274,0.596,0.499,1.308,0.499,1.583V103
			c0,0.596-0.225,0.971-0.499,0.834c-0.276-0.139-0.576-1.076-0.666-2.084h-0.668c-0.666,0-0.772-0.21-0.772-0.21
			c-0.492-0.985-1.157-1.452-1.477-1.04c-0.322,0.412-0.584,1.2-0.584,1.751c0,0.55,0.338,1.523,0.75,2.165
			c0.413,0.642,1.125,1.692,1.583,2.335c0.458,0.64,0.796,1.504,0.751,1.916c-0.046,0.411,0.179,1.349,0.499,2.083
			c0.322,0.733,0.996,1.82,1.501,2.417c0.504,0.596,1.254,1.195,1.666,1.334c0.413,0.137,0.675,0.549,0.584,0.917
			c-0.092,0.366,0.282,1.229,0.832,1.917c0.55,0.686,1.413,1.249,1.917,1.249c0.505,0,1.329,0.338,1.833,0.751
			c0.504,0.412,1.554,0.749,2.333,0.749c0.78,0,1.38-0.264,1.334-0.584c-0.045-0.321-0.083-0.958-0.083-1.417
			c0-0.458-0.187-0.833-0.416-0.833c-0.23,0-0.605-0.264-0.835-0.583c-0.229-0.32-1.279-0.582-2.333-0.582
			c-1.053,0-1.916-0.751-1.916-1.668c0-0.916-0.038-2.117-0.083-2.667c-0.047-0.551-0.572-1.562-1.168-2.25
			c-0.595-0.688-1.607-1.587-2.25-2c-0.641-0.412-1.167-1.088-1.167-1.5c0-0.412,0.188-0.786,0.418-0.833
			c0.229-0.046,0.529,0.141,0.667,0.416c0.137,0.275,0.587,0.312,0.999,0.083c0.413-0.229,0.75-0.866,0.75-1.415v-1.667v-1.668
			c-0.091,0.092-0.39-0.17-0.666-0.582c-0.274-0.413-0.8-1.052-1.166-1.418c-0.368-0.366-0.88-1.541-1.139-2.609l-0.391-1.614
			c-0.26-1.067-0.247-2.168,0.029-2.441c0.274-0.276,0.95-0.052,1.5,0.499c0.549,0.55,1.524,1.525,2.166,2.167
			c0.643,0.641,1.543,0.865,2.001,0.499c0.457-0.366,0.808-1.565,0.778-2.665l-0.058-2.169c-0.029-1.101,0.584-1.999,1.363-1.999
			c0.78,0,1.342-0.337,1.25-0.749c-0.091-0.413-0.354-1.238-0.584-1.834c-0.229-0.597-0.792-1.083-1.25-1.083
			s-0.832-0.862-0.832-1.916c0-1.056,0.749-1.917,1.667-1.917c0.917,0,2.341-0.301,3.167-0.667c0.825-0.367,1.8-0.968,2.165-1.333
			c0.366-0.367,1.192-0.668,1.834-0.668s1.89-0.536,2.773-1.192l2.621-1.948c0.883-0.654,1.606-1.979,1.606-2.941v-3.751v-1.5
			c0-1.101-0.188-2.525-0.416-3.167c-0.23-0.642-0.567-1.579-0.751-2.083c-0.184-0.504-0.109-1.404,0.167-1.999
			c0.274-0.597,0.049-1.571-0.501-2.167c-0.55-0.597-1.149-1.234-1.333-1.416c-0.182-0.184,0.005-0.636,0.417-1.001
			c0.413-0.367,0.976-0.742,1.25-0.833c0.275-0.092,1.288-0.092,2.25,0c0.963,0.091,1.675,0.879,1.583,1.749
			c-0.092,0.871,0.284,1.96,0.834,2.418c0.55,0.458,1.15,1.432,1.333,2.167c0.184,0.732,0.784,1.37,1.334,1.416
			c0.55,0.046,1-0.517,1-1.251c0-0.733,0.075-2.158,0.167-3.166c0.091-1.01,0.091-2.434,0-3.167
			c-0.092-0.733,0.321-1.558,0.917-1.832c0.596-0.276,1.926-0.813,2.958-1.195l0.749-0.279c1.031-0.381,2.362-0.956,2.958-1.276
			c0.596-0.321,1.232-1.472,1.413-2.558l0.009-0.054c0.181-1.085,0.029-2.085-0.337-2.223c-0.368-0.138-1.305-0.25-2.085-0.25
			c-0.779,0-1.679,0.188-2,0.418c-0.32,0.229-1.22,0.38-1.999,0.333c-0.78-0.046-1.529-0.496-1.667-1.001
			c-0.138-0.503,0.012-1.179,0.334-1.499c0.321-0.321,1.071-0.659,1.667-0.751c0.595-0.091,1.082-0.503,1.082-0.915
			c0-0.412-0.337-1.501-0.749-2.418c-0.414-0.917-1.539-2.009-2.501-2.425c-0.962-0.416-2.37-1.408-3.13-2.203l-0.405-0.425
			c-0.759-0.796-1.868-1.934-2.465-2.529c-0.596-0.598-1.534-1.085-2.083-1.085c-0.55,0-1.376,0.037-1.834,0.084
			c-0.458,0.046-0.832,0.346-0.832,0.666s-0.413,1.034-0.917,1.584c-0.505,0.55-1.593,1.484-2.418,2.075
			c-0.825,0.593-2.399,1.069-3.5,1.062l-0.707-0.006c-1.101-0.009-2.001-0.149-2.001-0.312c0-0.164-0.891-0.423-1.98-0.574
			l-3.33-0.468c-1.09-0.151-1.981,0.095-1.981,0.55c0,0.454-0.637,0.825-1.416,0.825c-0.78,0-1.614-0.496-1.855-1.102
			c-0.241-0.605-0.691-1.277-1-1.493c-0.31-0.215-1.457-0.287-2.549-0.161l-0.361,0.041c-1.093,0.126-2.324,0.789-2.737,1.472
			c-0.412,0.683-1.387,1.396-2.165,1.584c-0.78,0.187-1.867,0.004-2.417-0.409c-0.55-0.412-1.731-0.774-2.624-0.802
			c-0.894-0.026-1.907,0.156-2.25,0.41c-0.344,0.253-0.926,0.725-1.293,1.05c-0.366,0.326-0.666,0.326-0.666,0
			c0-0.324-0.376-0.59-0.834-0.59s-1.057-0.56-1.333-1.243c-0.274-0.683-0.912-1.467-1.416-1.741
			c-0.505-0.276-1.781-0.65-2.834-0.834c-1.054-0.184-2.757-0.657-3.783-1.053l-2.435-0.939c-1.026-0.397-2.215-0.898-2.644-1.114
			c-0.428-0.216-1.29-0.544-1.917-0.726c-0.626-0.185-2.038-0.334-3.138-0.334H79.562z"/>
	</defs>
	<use xlink:href="#SVGID_1_"  overflow="visible"/>
	<clipPath id="SVGID_2_">
		<use xlink:href="#SVGID_1_"  overflow="visible"/>
	</clipPath>
	<rect x="59.38" y="27.916" fill="#12a3ff" clip-path="url(#SVGID_2_)" width="98.519" height="92.168"/>
</g>
<path fill="#12a3ff" d="M78.378,73.167c-1.099,0.046-1.998-0.266-1.998-0.691c0-0.426,0.17-1.112,0.378-1.526c0.208-0.413,0.565-1.152,0.795-1.643
	c0.229-0.489,1.184-0.891,2.122-0.891c0.938,0,1.93-0.525,2.205-1.166c0.275-0.642,0.975-1.692,1.555-2.334
	c0.58-0.641,1.054-1.579,1.054-2.083c0-0.504,0.651-1.329,1.446-1.833c0.795-0.505,1.707-1.329,2.028-1.834
	c0.321-0.504,0.583-1.254,0.583-1.666c0-0.412-0.413-0.9-0.917-1.084c-0.504-0.183-1.557-0.333-2.34-0.333
	c-0.783,0-1.739-0.3-2.125-0.667c-0.386-0.366-0.702-0.328-0.702,0.084c0,0.412-0.506,0.899-1.125,1.083
	c-0.619,0.184-1.721,0.671-2.45,1.083c-0.729,0.412-1.325,1.088-1.325,1.5c0,0.412-0.267,0.75-0.591,0.75
	c-0.325,0-0.928-0.188-1.341-0.416c-0.413-0.229-1.256-0.904-1.874-1.5c-0.618-0.597-1.331-1.347-1.584-1.667
	c-0.253-0.32-0.91-0.583-1.46-0.583c-0.55,0-1.47-0.237-2.044-0.526c-0.574-0.289-1.083-0.924-1.131-1.411
	c-0.048-0.485-0.215-1.298-0.372-1.807c-0.157-0.508-0.473-1.022-0.702-1.145c-0.23-0.121-0.31-1.035-0.179-2.031
	c0.131-0.996,0.169-2.209,0.083-2.695c-0.085-0.486-0.08-1.223,0.012-1.635c0.092-0.412-0.17-0.938-0.583-1.167
	c-0.413-0.229-0.772-0.241-0.8-0.026c-0.027,0.214-0.462,0.541-0.967,0.725c-0.504,0.183-0.938,0.631-0.964,0.994
	c-0.027,0.363-0.567,0.715-1.201,0.779c-0.633,0.066-1.344-0.302-1.579-0.816c-0.235-0.516-0.534-1.192-0.666-1.504
	c-0.131-0.312-0.239-0.98-0.239-1.484c0-0.505,0.187-0.917,0.416-0.917c0.229,0,0.229-0.3,0-0.667
	c-0.229-0.366-0.416-1.341-0.416-2.166c0-0.825,0.665-2.108,1.477-2.849l0.066-0.061c0.812-0.741,1.947-1.356,2.522-1.365
	c0.576-0.009,1.396-0.022,1.824-0.028c0.427-0.008,1.253,0.196,1.835,0.453c0.581,0.256,1.247,0.687,1.479,0.957
	c0.232,0.271,0.984,0.492,1.672,0.492c0.687,0,1.358-0.444,1.49-0.986c0.133-0.543,0.319-1.306,0.415-1.695
	c0.096-0.39,0.41-1.147,0.697-1.686c0.288-0.537,1.123-0.959,1.856-0.938c0.733,0.019,1.674-0.562,2.091-1.295
	c0.417-0.734,1.657-1.334,2.758-1.334h0.65c1.1,0,2.512,0.15,3.139,0.334c0.626,0.183,1.488,0.511,1.917,0.726
	c0.428,0.217,1.618,0.719,2.644,1.114l2.434,0.939c1.026,0.396,2.729,0.869,3.783,1.053c1.054,0.184,2.33,0.558,2.834,0.833
	s1.142,1.06,1.417,1.742c0.275,0.683,0.875,1.243,1.333,1.243s0.833,0.266,0.833,0.591c0,0.325,0.3,0.325,0.667,0
	c0.367-0.325,0.948-0.798,1.292-1.051c0.344-0.254,1.356-0.438,2.25-0.41c0.894,0.028,2.075,0.39,2.625,0.802
	c0.55,0.412,1.637,0.597,2.416,0.409c0.779-0.188,1.753-0.9,2.166-1.584c0.413-0.683,1.644-1.346,2.737-1.472l0.36-0.041
	c1.093-0.126,2.24-0.054,2.549,0.161c0.31,0.215,0.76,0.888,1,1.493c0.241,0.605,1.076,1.102,1.855,1.102s1.417-0.371,1.417-0.825
	c0-0.455,0.891-0.701,1.98-0.549l3.331,0.466c1.089,0.152,1.98,0.411,1.98,0.575c0,0.162,0.9,0.304,2,0.312l0.708,0.005
	c1.1,0.009,2.675-0.469,3.5-1.06c0.825-0.592,1.913-1.526,2.417-2.076c0.504-0.55,0.917-1.263,0.917-1.584
	c0-0.32,0.375-0.62,0.833-0.666c0.458-0.047,1.283-0.084,1.833-0.084s1.488,0.487,2.084,1.084c0.596,0.596,1.705,1.734,2.464,2.53
	l0.406,0.424c0.759,0.796,2.168,1.788,3.13,2.204c0.962,0.417,2.087,1.508,2.5,2.425c0.413,0.917,0.75,2.005,0.75,2.417
	c0,0.412-0.487,0.825-1.083,0.916c-0.596,0.092-1.346,0.43-1.667,0.75c-0.321,0.321-0.472,0.996-0.334,1.5
	c0.138,0.505,0.888,0.954,1.667,1c0.779,0.047,1.679-0.104,2-0.333s1.221-0.417,2-0.417c0.779,0,1.717,0.112,2.084,0.25
	c0.367,0.138,0.519,1.138,0.337,2.223l-0.008,0.055c-0.182,1.085-0.817,2.235-1.413,2.557c-0.596,0.32-1.927,0.896-2.959,1.277
	l-0.749,0.278c-1.031,0.382-2.362,0.919-2.958,1.194c-0.596,0.275-1.008,1.1-0.917,1.833c0.091,0.733,0.091,2.158,0,3.167
	c-0.091,1.008-0.166,2.433-0.166,3.166c0,0.734-0.45,1.297-1,1.25c-0.55-0.046-1.15-0.683-1.334-1.416
	c-0.184-0.734-0.784-1.709-1.334-2.167s-0.925-1.546-0.833-2.417c0.092-0.87-0.621-1.658-1.583-1.75
	c-0.962-0.091-1.975-0.091-2.25,0c-0.275,0.092-0.837,0.467-1.25,0.834c-0.413,0.366-0.6,0.816-0.417,1
	c0.183,0.183,0.783,0.82,1.333,1.416c0.55,0.597,0.775,1.571,0.5,2.167c-0.275,0.596-0.35,1.496-0.166,2
	c0.184,0.504,0.521,1.442,0.75,2.083c0.229,0.642,0.416,2.067,0.416,3.167v1.5v3.75c0,0.963-0.723,2.287-1.605,2.942l-2.622,1.948
	c-0.882,0.655-2.13,1.192-2.773,1.192c-0.642,0-1.467,0.3-1.833,0.667c-0.366,0.367-1.341,0.967-2.166,1.333
	c-0.825,0.367-2.25,0.667-3.167,0.667s-1.667,0.862-1.667,1.917c0,1.054,0.375,1.916,0.833,1.916s1.02,0.487,1.25,1.084
	c0.229,0.596,0.492,1.421,0.584,1.833c0.092,0.412-0.471,0.75-1.25,0.75s-1.393,0.899-1.363,1.999l0.058,2.169
	c0.03,1.1-0.321,2.299-0.779,2.665c-0.458,0.367-1.358,0.142-2-0.5c-0.642-0.641-1.617-1.616-2.167-2.166
	c-0.55-0.55-1.225-0.775-1.5-0.5c-0.275,0.275-0.288,1.375-0.029,2.443l0.392,1.613c0.259,1.068,0.771,2.243,1.138,2.609
	c0.367,0.367,0.892,1.005,1.167,1.417c0.275,0.412,0.575,0.675,0.666,0.583v1.667v1.667c0,0.55-0.337,1.188-0.75,1.416
	c-0.413,0.229-0.862,0.192-1-0.083c-0.138-0.275-0.438-0.463-0.667-0.417c-0.23,0.047-0.417,0.422-0.417,0.834
	c0,0.412,0.525,1.088,1.167,1.5c0.642,0.412,1.654,1.312,2.25,2s1.121,1.7,1.167,2.25c0.046,0.55,0.084,1.75,0.084,2.667
	c0,0.917,0.862,1.667,1.916,1.667s2.103,0.263,2.333,0.583c0.229,0.32,0.604,0.583,0.834,0.583c0.229,0,0.417,0.375,0.417,0.833
	s0.038,1.096,0.083,1.417c0.045,0.321-0.555,0.584-1.334,0.584c-0.779,0-1.829-0.338-2.333-0.75s-1.329-0.75-1.833-0.75
	s-1.367-0.563-1.917-1.25c-0.55-0.688-0.925-1.55-0.833-1.917c0.092-0.367-0.17-0.779-0.583-0.917
	c-0.413-0.138-1.163-0.737-1.667-1.334c-0.504-0.596-1.179-1.683-1.5-2.416c-0.321-0.734-0.545-1.672-0.5-2.084
	s-0.292-1.275-0.75-1.916c-0.458-0.642-1.17-1.692-1.583-2.334c-0.413-0.641-0.75-1.616-0.75-2.166c0-0.55,0.262-1.338,0.583-1.75
	c0.321-0.412,0.985,0.055,1.478,1.039c0,0,0.105,0.211,0.771,0.211h0.668c0.091,1.008,0.391,1.945,0.666,2.083
	c0.275,0.138,0.5-0.237,0.5-0.833v-1.584c0-0.275-0.225-0.987-0.5-1.583c-0.275-0.596-0.762-1.233-1.083-1.417
	c-0.321-0.183-0.684-1.229-0.808-2.32l-0.55-4.858c-0.124-1.093-0.263-2.513-0.309-3.154s-0.647-1.242-1.334-1.333
	c-0.688-0.092-1.362-0.859-1.5-1.706s-0.662-1.709-1.166-1.917c-0.504-0.207-0.954-1.164-1-2.127
	c-0.046-0.963-0.534-1.75-1.084-1.75c-0.55,0-1.45-0.15-2-0.334c-0.55-0.183-1.636,0.304-2.414,1.081l-1.338,1.339
	c-0.778,0.777-1.639,1.826-1.914,2.33c-0.275,0.505-0.95,0.992-1.5,1.084c-0.55,0.091-1.602,0.835-2.338,1.652l-0.324,0.361
	c-0.736,0.817-1.363,2.386-1.395,3.485l-0.052,1.835c-0.032,1.1,0.205,2.149,0.526,2.332c0.321,0.184,0.621,0.821,0.666,1.417
	c0.045,0.596,0.308,1.158,0.583,1.25c0.275,0.092,0.538,0.505,0.584,0.917c0.046,0.412-0.141,0.825-0.416,0.916
	c-0.275,0.092-0.913,0.242-1.417,0.334c-0.504,0.091-0.879-0.321-0.834-0.917c0.045-0.596-0.179-1.271-0.5-1.5s-0.771-0.305-1-0.167
	c-0.23,0.138-0.717-0.237-1.083-0.833c-0.366-0.596-0.704-1.721-0.75-2.5c-0.046-0.779-0.533-2.197-1.082-3.15l-1.17-2.033
	c-0.549-0.953-1.136-2.623-1.305-3.711l-0.552-3.546c-0.169-1.087-0.57-1.563-0.891-1.06S86.6,80.188,85.852,79.5
	c-0.749-0.688-1.432-1.812-1.518-2.5c-0.086-0.688-0.711-1.888-1.389-2.667c-0.677-0.779-1.532-1.38-1.898-1.333
	c-0.366,0.046-1.565,0.12-2.664,0.166L78.378,73.167z"/>
<g>
	<defs>
		<path fill="#12a3ff" id="SVGID_3_" d="M160.419,53.214c-0.391,0.223-0.709,0.787-0.709,1.251c0,0.465-0.168,1.18-0.373,1.589
			c-0.204,0.409-0.448,0.972-0.541,1.251c-0.092,0.279-0.747,0.72-1.454,0.982h-0.338h-0.337c0.185,0.519,0.156,1.143-0.068,1.386
			c-0.223,0.241-0.604,0.65-0.846,0.912c-0.242,0.26-1.14,0.473-1.995,0.473h-0.202c-0.204,0-0.811,0.609-0.743,0.812l0.067,0.202
			c-0.595,0.261-1.309,0.626-1.589,0.812c-0.279,0.185-0.309,0.475-0.068,0.642c0.242,0.168,0.561,0.306,0.71,0.306
			c0.149,0,0.408,0.182,0.575,0.404c0.167,0.225,0.472,0.467,0.676,0.541c0.204,0.074,0.569-0.017,0.811-0.204
			c0.241-0.185,0.454-0.428,0.473-0.541c0.019-0.109,0.294-0.2,0.609-0.2c0.317,0,0.972,0.182,1.455,0.404
			c0.483,0.225,0.955,0.406,1.047,0.406c0.093,0,0.237-0.396,0.319-0.879c0.082-0.483,0.249-0.879,0.371-0.879
			c0.122,0,0.435-0.076,0.696-0.168c0.26-0.094,0.595-0.276,0.744-0.407c0.148-0.131,0.589-0.374,0.98-0.541
			c0.391-0.167,0.77-0.517,0.845-0.778c0.074-0.26,0.195-0.655,0.27-0.878c0.075-0.223,0.136-0.878,0.136-1.454
			c0-0.575,0.213-1.139,0.473-1.251c0.261-0.109,0.474-0.643,0.474-1.183v-1.825c0-0.465-0.457-0.876-1.015-0.913h-0.204h-0.202
			c-0.122-0.246-0.369-0.382-0.635-0.382C160.694,53.103,160.552,53.139,160.419,53.214"/>
	</defs>
	<use xlink:href="#SVGID_3_"  overflow="visible"/>
	<clipPath id="SVGID_4_">
		<use xlink:href="#SVGID_3_"  overflow="visible"/>
	</clipPath>
	<rect x="150.982" fill="#12a3ff" y="53.103" clip-path="url(#SVGID_4_)" width="11.905" height="11.747"/>
</g>
<path fill="#12a3ff" d="M153.184,64.775c-0.204-0.074-0.508-0.317-0.676-0.541c-0.167-0.223-0.426-0.405-0.575-0.405
	c-0.149,0-0.468-0.137-0.71-0.304c-0.242-0.168-0.211-0.457,0.068-0.643c0.28-0.186,0.994-0.552,1.588-0.812l-0.066-0.202
	c-0.068-0.202,0.539-0.812,0.742-0.812h0.203c0.855,0,1.753-0.213,1.995-0.473c0.243-0.261,0.623-0.672,0.846-0.913
	c0.223-0.241,0.253-0.865,0.067-1.386h0.338h0.338c0.707-0.261,1.362-0.702,1.454-0.981c0.093-0.279,0.337-0.843,0.541-1.251
	c0.205-0.409,0.372-1.124,0.372-1.59c0-0.464,0.32-1.027,0.71-1.251c0.391-0.222,0.862-0.101,1.046,0.271h0.203h0.204
	c0.558,0.037,1.015,0.448,1.015,0.913v1.825c0,0.539-0.213,1.072-0.474,1.184c-0.26,0.111-0.473,0.675-0.473,1.251
	c0,0.576-0.061,1.23-0.136,1.453c-0.075,0.223-0.196,0.618-0.27,0.879c-0.075,0.261-0.454,0.61-0.845,0.777
	c-0.391,0.167-0.832,0.41-0.981,0.541c-0.149,0.131-0.483,0.313-0.744,0.405c-0.26,0.094-0.573,0.17-0.695,0.17
	c-0.122,0-0.289,0.396-0.371,0.879c-0.082,0.483-0.226,0.879-0.318,0.879c-0.093,0-0.565-0.183-1.048-0.406
	c-0.484-0.223-1.138-0.405-1.454-0.405c-0.317,0-0.591,0.091-0.61,0.202c-0.019,0.112-0.232,0.355-0.473,0.541
	C153.753,64.758,153.388,64.85,153.184,64.775z"/>
<g>
	<defs>
		<path fill="#12a3ff" id="SVGID_5_" d="M162.548,46.655h-0.61c-0.184,0.893-0.336,1.866-0.336,2.163c0,0.298-0.076,1.043-0.169,1.656
			c-0.092,0.614-0.29,1.207-0.44,1.318c-0.148,0.112-0.011,0.204,0.304,0.204h1.319h1.792c0.576,0,1.078-0.261,1.115-0.575
			c0.037-0.316,0.633-1.274,1.324-2.13c0,0,0.164-0.202,0.097-0.54l-0.068-0.337c-0.372-0.075-1.071-0.502-1.556-0.948
			c-0.483-0.446-1.456-0.812-2.163-0.812H162.548z"/>
	</defs>
	<use xlink:href="#SVGID_5_"  overflow="visible"/>
	<clipPath id="SVGID_6_">
		<use xlink:href="#SVGID_5_"  overflow="visible"/>
	</clipPath>
	<rect fill="#12a3ff" x="160.845" y="46.655" clip-path="url(#SVGID_6_)" width="6.166" height="5.342"/>
</g>
<path fill="#12a3ff" d="M160.994,51.793c0.149-0.111,0.347-0.704,0.439-1.318c0.093-0.613,0.169-1.358,0.169-1.656c0-0.297,0.152-1.271,0.336-2.163
	h0.61h0.609c0.707,0,1.681,0.365,2.164,0.812c0.484,0.446,1.183,0.873,1.555,0.947l0.068,0.338c0.067,0.338-0.096,0.54-0.096,0.54
	c-0.692,0.854-1.288,1.813-1.325,2.13c-0.037,0.315-0.539,0.574-1.115,0.574h-1.792h-1.318
	C160.982,51.996,160.845,51.905,160.994,51.793z"/>
<g>
	<defs>
		<path fill="#12a3ff" id="SVGID_7_" d="M128.753,81.948c-0.217,0.148-0.861,0.483-1.43,0.743l-0.202,0.203l-0.204,0.203
			c0.558,0.148,1.151,0.453,1.319,0.676c0.167,0.225,0.548,0.406,0.846,0.406c0.297,0,0.556-0.153,0.574-0.338
			c0.018-0.186,0.231-0.354,0.473-0.372c0.241-0.02,0.439-0.148,0.439-0.288c0-0.139-0.152-0.542-0.338-0.894h-0.338h-0.338
			c-0.165-0.249-0.406-0.396-0.608-0.396C128.875,81.892,128.809,81.909,128.753,81.948"/>
	</defs>
	<use xlink:href="#SVGID_7_"  overflow="visible"/>
	<clipPath id="SVGID_8_">
		<use xlink:href="#SVGID_7_"  overflow="visible"/>
	</clipPath>
	<rect fill="#12a3ff" x="126.917" y="81.892" clip-path="url(#SVGID_8_)" width="3.651" height="2.288"/>
</g>
<path fill="#12a3ff" d="M129.656,83.842c-0.018,0.186-0.277,0.338-0.574,0.338c-0.298,0-0.678-0.183-0.846-0.406
	c-0.167-0.223-0.761-0.527-1.318-0.676l0.203-0.203l0.203-0.203c0.568-0.26,1.211-0.595,1.429-0.744
	c0.217-0.147,0.578,0.005,0.801,0.34h0.338h0.338c0.186,0.352,0.338,0.756,0.338,0.894c0,0.139-0.198,0.27-0.439,0.288
	C129.887,83.487,129.674,83.655,129.656,83.842z"/>
<g>
	<defs>
		<path fill="#12a3ff" id="SVGID_9_" d="M140.844,84.924v1.453c0,0.391-0.166,0.953-0.371,1.249c-0.204,0.296-0.584,0.966-0.846,1.488l-0.404,0.201
			l-0.406,0.2c-0.112-0.406-0.568-1.042-1.014-1.414l-0.203,0.066l-0.203,0.068c-0.445-0.037-0.598,0.175-0.337,0.473l0.337,0.474
			l0.337,0.474c0.298,0.037,0.756,0.234,1.016,0.439c0.26,0.204,0.542,0.371,0.625,0.371h0.609c0.251,0,0.547-0.289,0.658-0.644
			c0.111-0.352,0.202-0.641,0.474-0.979c0.269-0.338,0.878-0.743,1.082-0.879l0.203-0.136c0.037-0.278,0.067-0.772,0.067-1.098
			c0-0.327-0.122-0.684-0.27-0.795h-0.406h-0.404c0.073-0.482-0.018-1.076-0.205-1.317c-0.062-0.081-0.121-0.12-0.171-0.12
			C140.912,84.5,140.844,84.651,140.844,84.924"/>
	</defs>
	<use xlink:href="#SVGID_9_"  overflow="visible"/>
	<clipPath id="SVGID_10_">
		<use xlink:href="#SVGID_9_"  overflow="visible"/>
	</clipPath>
	<rect fill="#12a3ff" x="136.799" y="84.5" clip-path="url(#SVGID_10_)" width="5.669" height="5.967"/>
</g>
<path fill="#12a3ff" d="M139.376,90.467c-0.084,0-0.366-0.167-0.626-0.371c-0.26-0.205-0.717-0.402-1.015-0.44l-0.338-0.473l-0.337-0.474
	c-0.26-0.298-0.108-0.51,0.337-0.473l0.204-0.068l0.203-0.066c0.446,0.372,0.902,1.008,1.013,1.414l0.407-0.2l0.404-0.2
	c0.261-0.523,0.642-1.193,0.846-1.49c0.204-0.296,0.371-0.857,0.371-1.248v-1.453c0-0.409,0.152-0.547,0.339-0.305
	c0.186,0.242,0.278,0.835,0.204,1.318h0.404h0.406c0.149,0.111,0.27,0.468,0.27,0.795c0,0.325-0.03,0.819-0.067,1.098l-0.203,0.136
	c-0.203,0.136-0.812,0.541-1.082,0.879c-0.271,0.338-0.362,0.627-0.473,0.979c-0.112,0.354-0.408,0.643-0.659,0.643H139.376z"/>
<g>
	<defs>
		<path fill="#12a3ff" id="SVGID_11_" d="M138.344,93.441l0.135,0.476c0.135,0.472,0.135,0.945,0.609,1.282l0.473,0.339
			c-0.018,0.705-0.033,1.405-0.033,1.555c0,0.147-0.129,0.316-0.287,0.372c-0.158,0.056-0.242,0.239-0.187,0.406
			c0.056,0.168,0.331,0.35,0.612,0.404c0.281,0.057,0.631,0.346,0.777,0.643c0.148,0.298,0.344,0.724,0.437,0.947
			c0.093,0.224,0.306,0.239,0.473,0.034c0.167-0.205,0.729-0.585,1.249-0.846l-0.134-0.202c-0.135-0.203-0.093-1.112-0.093-1.112
			c0.051-1.099-0.066-2.241-0.259-2.54c-0.194-0.297-0.71-0.723-1.149-0.945c-0.438-0.224-0.941-0.604-1.117-0.847
			c-0.178-0.241-0.451-0.696-0.609-1.013c-0.158-0.314-0.531-0.636-0.829-0.71c-0.013-0.003-0.025-0.005-0.037-0.005
			C138.113,91.68,138.096,92.446,138.344,93.441"/>
	</defs>
	<use xlink:href="#SVGID_11_"  overflow="visible"/>
	<clipPath id="SVGID_12_">
		<use xlink:href="#SVGID_11_"  overflow="visible"/>
	</clipPath>
	<rect fill="#12a3ff" x="138.096" y="91.68" clip-path="url(#SVGID_12_)" width="4.506" height="8.425"/>
</g>
<path fill="#12a3ff" d="M140.88,99.865c0.093,0.224,0.306,0.239,0.473,0.034c0.167-0.205,0.729-0.585,1.249-0.846l-0.135-0.202
	c-0.135-0.203-0.093-1.112-0.093-1.112c0.051-1.099-0.065-2.241-0.259-2.539c-0.193-0.298-0.71-0.724-1.148-0.946
	c-0.439-0.224-0.941-0.604-1.118-0.846c-0.177-0.242-0.451-0.698-0.609-1.014c-0.157-0.315-0.53-0.636-0.828-0.71
	c-0.297-0.074-0.328,0.717-0.068,1.758l0.135,0.474c0.134,0.473,0.134,0.946,0.609,1.284l0.473,0.338
	c-0.018,0.706-0.034,1.406-0.034,1.555c0,0.148-0.129,0.316-0.287,0.372c-0.157,0.056-0.241,0.238-0.186,0.406
	c0.055,0.167,0.33,0.35,0.611,0.405c0.281,0.056,0.632,0.345,0.778,0.642C140.59,99.216,140.788,99.642,140.88,99.865z"/>
<g>
	<defs>
		<path fill="#12a3ff" id="SVGID_13_" d="M140.777,92.698c0,0.335,0.108,0.608,0.238,0.608c0.131,0,0.344-0.061,0.473-0.135
			c0.131-0.074,0.237-0.348,0.237-0.608c0-0.261-0.213-0.473-0.473-0.473C140.992,92.091,140.777,92.362,140.777,92.698"/>
	</defs>
	<use xlink:href="#SVGID_13_"  overflow="visible"/>
	<clipPath id="SVGID_14_">
		<use xlink:href="#SVGID_13_"  overflow="visible"/>
	</clipPath>
	<rect fill="#12a3ff" x="140.777" y="92.091" clip-path="url(#SVGID_14_)" width="0.948" height="1.216"/>
</g>
<path fill="#12a3ff" d="M141.015,93.307c-0.13,0-0.237-0.273-0.237-0.608s0.213-0.608,0.473-0.608c0.261,0,0.474,0.213,0.474,0.474
	c0,0.261-0.106,0.534-0.236,0.608C141.359,93.246,141.145,93.307,141.015,93.307z"/>
<g>
	<defs>
		<path fill="#12a3ff" id="SVGID_15_" d="M132.225,99.223c-0.205,0.279-0.418,0.721-0.474,0.981c-0.056,0.26-0.344,0.64-0.642,0.845
			c-0.297,0.205-0.723,0.372-0.946,0.372c-0.223,0-0.695,0.472-1.049,1.048c-0.352,0.576-1.098,1.474-1.656,1.995
			c-0.557,0.521-1.119,1.091-1.25,1.268c-0.129,0.176-0.616,0.321-1.082,0.321c-0.465,0-0.846,0.403-0.846,0.896
			c0,0.493,0.198,1.033,0.441,1.199c0.241,0.168,0.454,0.913,0.473,1.657c0.019,0.744,0.262,1.505,0.541,1.691
			c0.279,0.184,0.698,0.367,0.932,0.404c0.235,0.036,0.569,0.189,0.744,0.338c0.176,0.149,0.806,0.271,1.401,0.271h0.371h0.371
			c0.557,0,1.014,0.273,1.014,0.607v0.44c0-0.093,0.442-0.169,0.98-0.169c0.539,0,0.981-0.304,0.981-0.676s0.229-0.768,0.507-0.879
			c0.279-0.111,0.507-0.934,0.507-1.826c0-0.892,0.122-1.774,0.271-1.959c0.149-0.188,0.27-1.239,0.27-2.339v-4.992
			c0-1.101-0.334-2-0.743-2C132.931,98.716,132.43,98.944,132.225,99.223"/>
	</defs>
	<use xlink:href="#SVGID_15_"  overflow="visible"/>
	<clipPath id="SVGID_16_">
		<use xlink:href="#SVGID_15_"  overflow="visible"/>
	</clipPath>
	<rect fill="#12a3ff" x="124.28" y="98.716" clip-path="url(#SVGID_16_)" width="9.804" height="14.84"/>
</g>
<path fill="#12a3ff" d="M130.568,113.556c0-0.093,0.441-0.169,0.98-0.169c0.54,0,0.981-0.304,0.981-0.676s0.228-0.768,0.507-0.879
	c0.279-0.111,0.508-0.934,0.508-1.826c0-0.892,0.121-1.774,0.27-1.96c0.149-0.186,0.271-1.238,0.271-2.338v-4.992
	c0-1.1-0.335-2-0.744-2c-0.409,0-0.911,0.229-1.116,0.507c-0.204,0.279-0.418,0.721-0.473,0.981c-0.056,0.26-0.346,0.64-0.643,0.845
	s-0.723,0.372-0.946,0.372c-0.223,0-0.695,0.472-1.048,1.048c-0.354,0.576-1.099,1.474-1.656,1.995
	c-0.558,0.521-1.12,1.091-1.25,1.268c-0.13,0.177-0.617,0.321-1.082,0.321c-0.466,0-0.846,0.403-0.846,0.896
	c0,0.493,0.198,1.033,0.439,1.2c0.242,0.167,0.455,0.912,0.474,1.656c0.019,0.744,0.262,1.505,0.541,1.69
	c0.279,0.186,0.698,0.368,0.933,0.405c0.234,0.037,0.568,0.189,0.744,0.338c0.175,0.148,0.805,0.271,1.4,0.271h0.371h0.371
	c0.558,0,1.014,0.273,1.014,0.608V113.556z"/>
<g>
	<defs>
		<path fill="#12a3ff" id="SVGID_17_" d="M137.972,106.018c-0.576,0.112-1.048,0.446-1.048,0.744c0,0.298-0.197,0.814-0.439,1.15
			c-0.242,0.334-0.44,0.791-0.44,1.013c0,0.222-0.243,0.542-0.541,0.71c-0.297,0.168-0.64,0.533-0.76,0.812
			c-0.121,0.278-0.319,0.962-0.439,1.521c-0.121,0.559-0.059,1.338,0.139,1.732c0.197,0.395,0.395,0.79,0.439,0.88
			c0.044,0.088,0.369,0.16,0.723,0.16s0.719-0.229,0.812-0.508c0.092-0.278,0.26-0.431,0.372-0.338
			c0.111,0.093,0.552,0.321,0.98,0.507c0.428,0.187,0.837,0.339,0.912,0.339c0.074,0,0.165-0.061,0.203-0.136
			c0.037-0.075,0.264-0.075,0.506,0c0.242,0.075,0.517-0.169,0.612-0.541c0.096-0.372,0.079-0.797-0.036-0.946h-0.439h-0.44
			c-0.149-0.557-0.286-1.349-0.304-1.757c-0.018-0.41-0.429-0.927-0.913-1.15c-0.483-0.223-0.97-0.664-1.081-0.98
			c-0.112-0.315,0.093-0.817,0.456-1.116c0.363-0.298,1.559-0.561,2.658-0.586c0,0,1.008-0.021,1.349-0.021h0.337
			c0.075-0.111,0.135-0.445,0.135-0.743c0-0.298-0.609-0.632-1.353-0.744c-0.371-0.056-0.827-0.084-1.263-0.084
			C138.674,105.934,138.26,105.962,137.972,106.018"/>
	</defs>
	<use xlink:href="#SVGID_17_"  overflow="visible"/>
	<clipPath id="SVGID_18_">
		<use xlink:href="#SVGID_17_"  overflow="visible"/>
	</clipPath>
	<rect fill="#12a3ff" x="134.184" y="105.934" clip-path="url(#SVGID_18_)" width="7.541" height="8.806"/>
</g>
<path fill="#12a3ff" d="M135.606,114.739c-0.354,0-0.679-0.072-0.723-0.161c-0.044-0.089-0.241-0.485-0.439-0.879
	c-0.198-0.395-0.26-1.174-0.14-1.732c0.121-0.558,0.319-1.242,0.44-1.521c0.12-0.278,0.463-0.644,0.76-0.812
	c0.298-0.168,0.541-0.487,0.541-0.71c0-0.223,0.198-0.679,0.44-1.014c0.242-0.335,0.439-0.852,0.439-1.149
	c0-0.298,0.472-0.633,1.048-0.744c0.576-0.111,1.657-0.111,2.401,0c0.743,0.111,1.352,0.446,1.352,0.744
	c0,0.298-0.06,0.632-0.135,0.743h-0.338c-0.339,0-1.348,0.022-1.348,0.022c-1.099,0.023-2.296,0.288-2.658,0.586
	c-0.363,0.298-0.568,0.8-0.456,1.115c0.111,0.316,0.598,0.758,1.082,0.98c0.483,0.224,0.894,0.741,0.912,1.15
	c0.018,0.408,0.155,1.2,0.304,1.758h0.44h0.439c0.115,0.149,0.132,0.574,0.036,0.945c-0.095,0.372-0.37,0.616-0.612,0.541
	c-0.242-0.074-0.47-0.074-0.507,0c-0.037,0.075-0.128,0.136-0.202,0.136c-0.074,0-0.484-0.152-0.912-0.339
	c-0.428-0.186-0.869-0.414-0.98-0.507c-0.112-0.093-0.28,0.06-0.372,0.339C136.325,114.51,135.96,114.739,135.606,114.739z"/>
<g>
	<defs>
		<path fill="#12a3ff" id="SVGID_19_" d="M144.496,107.1c0,0.184,0.198,0.521,0.44,0.744c0.242,0.223,0.44,0.528,0.44,0.676
			c0,0.149,0.182,0.21,0.405,0.135c0.225-0.074,0.407-0.226,0.407-0.338v-0.607c0-0.224-0.182-0.528-0.407-0.678
			c-0.223-0.147-0.603-0.27-0.845-0.27C144.694,106.762,144.496,106.915,144.496,107.1"/>
	</defs>
	<use xlink:href="#SVGID_19_"  overflow="visible"/>
	<clipPath id="SVGID_20_">
		<use xlink:href="#SVGID_19_"  overflow="visible"/>
	</clipPath>
	<rect fill="#12a3ff" x="144.496" y="106.762" clip-path="url(#SVGID_20_)" width="1.692" height="1.968"/>
</g>
<path fill="#12a3ff" d="M145.782,108.654c-0.224,0.075-0.406,0.015-0.406-0.135c0-0.148-0.198-0.452-0.44-0.677
	c-0.241-0.223-0.439-0.558-0.439-0.743c0-0.186,0.198-0.338,0.439-0.338c0.242,0,0.622,0.121,0.846,0.271
	c0.224,0.148,0.406,0.453,0.406,0.677v0.607C146.188,108.429,146.006,108.58,145.782,108.654z"/>
<g>
	<defs>
		<path fill="#12a3ff" id="SVGID_21_" d="M148.824,109.163c-0.185,0.203-0.337,0.537-0.337,0.741c0,0.205,0.335,0.525,0.743,0.71
			c0.409,0.187,0.743,0.521,0.743,0.745c0,0.225,0.304,0.649,0.676,0.947c0.371,0.297,0.935,0.616,1.251,0.709
			c0.316,0.094,0.743,0.398,0.947,0.676c0.205,0.279,0.524,0.629,0.71,0.777c0.186,0.149,0.43,0.545,0.541,0.879
			c0.112,0.335,0.204,1.097,0.204,1.692c0,0.594,0.212,1.203,0.472,1.352c0.259,0.149,0.883,0.271,1.385,0.271
			c0.503,0,1.133,0.259,1.401,0.573c0.268,0.316,0.876,0.575,1.351,0.575c0.476,0,0.864-0.137,0.864-0.304v-0.845v-1.556
			c0-0.558-0.151-1.151-0.337-1.318c-0.186-0.168-0.337-0.943-0.337-1.724v-0.34c0-0.338-0.339-1.418-0.406-1.959
			c-0.068-0.541-0.474-0.271-0.647-0.271c-0.176,0-1.584-0.067-1.855-0.067h-0.27c-0.67-0.074-1.856-0.257-2.637-0.406
			c-0.781-0.147-2.029-0.332-2.772-0.407h-0.203h-0.203c-0.036-0.854-0.264-1.613-0.506-1.688c-0.052-0.017-0.11-0.024-0.17-0.024
			C149.216,108.901,148.97,109.002,148.824,109.163"/>
	</defs>
	<use xlink:href="#SVGID_21_"  overflow="visible"/>
	<clipPath id="SVGID_22_">
		<use xlink:href="#SVGID_21_"  overflow="visible"/>
	</clipPath>
	<rect fill="#12a3ff" x="148.487" y="108.901" clip-path="url(#SVGID_22_)" width="11.288" height="10.909"/>
</g>
<path fill="#12a3ff" d="M154.774,118.392c-0.26-0.149-0.473-0.758-0.473-1.353c0-0.595-0.091-1.356-0.203-1.691
	c-0.112-0.334-0.355-0.729-0.541-0.879c-0.186-0.148-0.505-0.498-0.71-0.776c-0.204-0.278-0.631-0.583-0.947-0.677
	c-0.316-0.093-0.879-0.412-1.251-0.709c-0.372-0.298-0.676-0.724-0.676-0.947c0-0.224-0.334-0.559-0.743-0.744
	c-0.409-0.186-0.743-0.505-0.743-0.71s0.152-0.539,0.338-0.742c0.186-0.206,0.535-0.312,0.777-0.237
	c0.242,0.074,0.469,0.834,0.506,1.689h0.203h0.203c0.743,0.074,1.991,0.258,2.772,0.406c0.78,0.148,1.967,0.332,2.636,0.406h0.272
	c0.269,0,1.678,0.067,1.853,0.067c0.174,0,0.581-0.271,0.649,0.271c0.066,0.541,0.404,1.621,0.404,1.959v0.34
	c0,0.78,0.152,1.557,0.338,1.724c0.186,0.167,0.338,0.761,0.338,1.318v1.557v0.844c0,0.167-0.389,0.304-0.864,0.304
	c-0.475,0-1.084-0.259-1.352-0.574c-0.268-0.315-0.898-0.573-1.4-0.573C155.657,118.663,155.034,118.54,154.774,118.392z"/>
<g>
	<defs>
		<path fill="#12a3ff" id="SVGID_23_" d="M140.714,76.424l-0.538,0.488l-0.537,0.488c0.296,0.18,0.537,0.582,0.537,0.895
			c0,0.313,0.242,0.387,0.538,0.163c0.296-0.224,0.71-0.6,0.919-0.834c0.21-0.234,0.381-0.545,0.381-0.691v-0.834
			c0-0.314-0.171-0.569-0.381-0.569C141.424,75.529,141.01,75.932,140.714,76.424"/>
	</defs>
	<use xlink:href="#SVGID_23_"  overflow="visible"/>
	<clipPath id="SVGID_24_">
		<use xlink:href="#SVGID_23_"  overflow="visible"/>
	</clipPath>
	<rect fill="#12a3ff" x="139.639" y="75.529" clip-path="url(#SVGID_24_)" width="2.375" height="3.152"/>
</g>
<path fill="#12a3ff" d="M140.714,78.458c-0.296,0.224-0.538,0.15-0.538-0.163c0-0.312-0.242-0.716-0.537-0.895l0.537-0.488l0.537-0.488
	c0.296-0.492,0.71-0.895,0.92-0.895c0.209,0,0.381,0.256,0.381,0.569v0.834c0,0.146-0.172,0.457-0.381,0.691
	C141.423,77.858,141.01,78.234,140.714,78.458z"/>
<g>
	<defs>
		<path fill="#12a3ff" id="SVGID_25_" d="M145.342,79.19h-0.334c0.649,0.358,1.18,0.505,1.18,0.325c0-0.178-0.23-0.325-0.512-0.325H145.342z"/>
	</defs>
	<use xlink:href="#SVGID_25_"  overflow="visible"/>
	<clipPath id="SVGID_26_">
		<use xlink:href="#SVGID_25_"  overflow="visible"/>
	</clipPath>
	<rect fill="#12a3ff" x="145.008" y="79.19" clip-path="url(#SVGID_26_)" width="1.18" height="0.505"/>
</g>
<path fill="#12a3ff" d="M145.342,79.19h0.334c0.281,0,0.512,0.146,0.512,0.325c0,0.18-0.531,0.033-1.18-0.325H145.342z"/>
</svg>
