<?xml version="1.0" encoding="utf-8"?>
<!-- Generator: Adobe Illustrator 17.0.0, SVG Export Plug-In . SVG Version: 6.00 Build 0)  -->
<!DOCTYPE svg PUBLIC "-//W3C//DTD SVG 1.1//EN" "http://www.w3.org/Graphics/SVG/1.1/DTD/svg11.dtd">
<svg version="1.1" id="Layer_1" xmlns="http://www.w3.org/2000/svg" xmlns:xlink="http://www.w3.org/1999/xlink" x="0px" y="0px"
	 width="235px" height="148px" viewBox="0 0 235 148" enable-background="new 0 0 235 148" xml:space="preserve">
<path fill="#12a3ff" d="M87.486,89.575h1.368v0.959h1.506v-0.821l1.367-0.275v-1.368l2.327,0.616h3.695v-1.847l3.695-1.506l8.349-0.684l5.339,4.651
	l2.052,1.233l2.465,3.283l3.01,1.78l0.548,1.096h6.981l1.367-2.327h2.602v-1.233v-4.517l2.736-0.821v-1.368l2.736-0.821v-8.212
	l-1.094-1.915v-3.695h-2.053l-4.244-7.256l-3.421-2.461l-3.833-1.78l0.139-4.653h-1.506l-0.82-1.915l0.021-1.347l-2.462-0.821
	c0,0-1.12,3.81-1.12,4.22c0,0.412-0.819,1.643-0.819,1.643v2.599l-1.506-0.135l-3.354-2.738v-2.6l1.162-1.096v-1.232l-1.162-0.137
	l1.255,0.297l-0.752-0.821c0,0-1.919,0.549-3.696,0c-1.78-0.547-3.42,0-3.42,0l-3.173,3.81h-3.148l-0.821-1.096l-1.641,0.138
	l-2.192,2.873l-1.64,1.643l0.684,2.19l1.369,0.959l-0.822,1.368h-2.189c0,0-3.011,0.271-5.885,3.283
	c-1.405,2.084-1.233,5.203-1.233,5.203l-1.506,0.135v2.464l1.096,1.097c0,0,0.959,4.653,2.053,7.115l0.601,2.983l-0.093,1.29
	l-0.922,0.92L87.486,89.575z"/>
</svg>
