<?xml version="1.0" encoding="utf-8"?>
<!-- Generator: Adobe Illustrator 17.0.0, SVG Export Plug-In . SVG Version: 6.00 Build 0)  -->
<!DOCTYPE svg PUBLIC "-//W3C//DTD SVG 1.1//EN" "http://www.w3.org/Graphics/SVG/1.1/DTD/svg11.dtd">
<svg version="1.1" id="Layer_1" xmlns="http://www.w3.org/2000/svg" xmlns:xlink="http://www.w3.org/1999/xlink" x="0px" y="0px"
	 width="235px" height="148px" viewBox="0 0 235 148" enable-background="new 0 0 235 148" xml:space="preserve">
<path fill="#12a3ff" d="M18.031,104.851c0.149,0.25,0.57,0.297,0.935,0.104c0.364-0.191,1.247-0.625,1.961-0.961h0.382h0.381
	c0.294-0.546,0.603-1.713,0.687-2.595c0.084-0.882-0.088-2.083-0.382-2.671l0.535,0.076c0.534,0.077,1.053,0.061,1.053,0.061
	c1.1-0.035,2.291-0.476,2.648-0.979c0.356-0.502,0.648-1.224,0.648-1.6c0-0.378,0.601-0.979,1.336-1.336
	c0.734-0.356,1.764-0.648,2.289-0.648c0.524,0,0.533-0.05,0.02-0.111h1.832h1.831c0.17,0.505,0.946,1.399,1.723,1.988l0.536,0.152
	c0.533,0.152,0.736,1.558,1.269,1.863c0.535,0.305,1.129,0.755,1.129,0.755c0.876,0.664,1.693,1.087,1.814,0.938
	c0.122-0.148,0.092-0.613-0.065-1.034c-0.157-0.421-0.97-1.35-1.805-2.067c0,0-0.356-0.304-0.737-0.686l-0.382-0.382
	c-0.295-0.777-0.491-1.724-0.435-2.103c0.055-0.379,0.82-1.229,1.7-1.889c0,0,0.232-0.174,0.842,1.2
	c0.611,1.373,1.679,2.898,2.06,2.976c0.381,0.077,1.49,1.229,1.567,1.535c0.076,0.306,0.135,0.57,0.135,0.57
	c0.24,1.074,0.363,2.805,0.273,3.848l0.502,0.152c0.5,0.152,1.111,1.374,1.416,1.374h0.304c0.489,0.068,0.764,0.789,0.612,1.602
	h0.304h0.305c0.295-0.378,0.675-0.896,0.846-1.154c0.171-0.257,0.465-0.587,0.654-0.733c0.189-0.146,0.086-0.421-0.229-0.61
	c-0.316-0.189-0.612-0.404-0.66-0.479v-0.381v-0.382c0.084-0.881,0.496-1.603,0.916-1.603c0.419,0,0.951-0.129,1.182-0.286
	c0.231-0.157,0.866-0.269,1.412-0.248v-0.038c0-0.038-0.076,0.572,0,0.572c0.076,0,0.764,0.382,1.145,0.382
	c0.383,0,0.383,0.061,0.383,0.061v2.802v1.411c0,0.336-0.241,0.954-0.536,1.374l0.536,0.152l0.533,0.152
	c0.629-0.084,2.02-0.137,3.091-0.118c1.07,0.019,2.323,0.034,2.785,0.034c0.461,0,1.028,0.757,1.259,1.683
	c0.231,0.926,0.505,2.198,0.611,2.827c0.105,0.63,0.037,1.334-0.152,1.564c-0.189,0.231-0.894,0.42-1.565,0.42
	c-0.671,0-0.775,0.687-0.229,1.525c0.545,0.841,1.128,2.18,1.296,2.978c0.168,0.798,0.529,1.45,0.802,1.45
	c0.273,0,0.874,0.686,1.335,1.526c0.462,0.84,1.194,2.354,1.628,3.364l0.026,0.062c0.434,1.011,1.379,2.518,2.1,3.348
	c0,0,0.214,0.246,0.214,0.475c0,0.229,0.307,2.748,0.611,2.748c0.305,0,1.373,0.84,1.526,1.145l0.154,0.305
	c0.209,0.672,0.381,1.978,0.381,2.9c0,0.923,0.172,1.936,0.382,2.252c0.21,0.314,1.137,0.504,2.061,0.42l0.229,0.152l0.228,0.152
	c0.63,0.209,1.368,0.519,1.641,0.687c0.273,0.168,0.771,0.168,1.106,0c0.336-0.168,0.765-0.46,0.954-0.649
	c0.189-0.19,0.447-0.377,0.573-0.419h0.533h1.527h0.381c0.295-0.546,0.878-1.198,1.298-1.45c0.419-0.251,0.625-0.595,0.457-0.763
	c-0.168-0.168-0.168-0.443,0-0.61c0.168-0.168,0.1-0.752-0.151-1.298h0.457h0.457c0.504,0.084,1.191,0.119,1.527,0.077
	c0.336-0.043,0.611-0.593,0.611-1.223c0-0.629,0.103-1.693,0.229-2.365h0.456h0.459c0.419-0.042,1.019-0.454,1.335-0.916
	c0.315-0.461,0.573-1.088,0.573-1.393c0.001-0.306-0.012-1.273-0.028-2.152c-0.016-0.879,0.14-2.029,0.347-2.557
	c0.208-0.527,0.547-1.051,0.755-1.163c0.208-0.11,0.465-0.516,0.571-0.899c0.106-0.384,0.362-1.035,0.571-1.449
	c0.208-0.413,0.566-1.152,0.796-1.643c0.229-0.489,1.184-0.891,2.121-0.891c0.937,0,1.929-0.525,2.204-1.166
	c0.275-0.642,0.975-1.692,1.555-2.334c0.58-0.641,1.054-1.579,1.054-2.083c0-0.504,0.818-1.294,1.817-1.755
	c0,0,1.074-0.495,1.074-0.995c0-0.207,1.176-0.88,1.168-1.833c-0.006-0.668,0.004-0.957,0-1.5l-0.006-0.551
	c-0.785,0.015-2.158-0.004-3.051-0.043c-0.892-0.04-1.939-0.373-2.325-0.74c-0.386-0.366-0.702-0.328-0.702,0.084
	c0,0.412-0.825,1.11-1.833,1.551l-1.029,0.449c-1.009,0.44-1.88,1.164-1.937,1.608c-0.057,0.444-0.369,0.808-0.694,0.808
	c-0.325,0-0.864-0.151-1.198-0.338c-0.334-0.185-1.289-0.926-2.121-1.646l-0.3-0.26c-0.832-0.719-2.038-1.308-2.68-1.308
	s-1.498,0.261-1.901,0.579c-0.404,0.318-1.271,0.462-1.926,0.317c-0.655-0.144-1.519-0.612-1.919-1.041
	c-0.4-0.43-0.758-1.681-0.796-2.78l-0.022-0.605c-0.038-1.1-0.464-2.351-0.947-2.78c-0.483-0.43-1.26-1.596-1.727-2.592l-0.51-1.086
	c-0.467-0.996-1.006-2.182-1.197-2.636c-0.192-0.454-0.348-1.237-0.348-1.741c0-0.505,0.187-0.917,0.417-0.917
	c0.229,0,0.229-0.562,0-1.251c-0.23-0.688-0.405-1.719-0.391-2.291c0.015-0.572,0.694-1.605,1.51-2.295
	c0.816-0.69,2.304-1.267,3.307-1.283c1.003-0.016,2.3,0.181,2.882,0.438c0.582,0.256,1.248,0.687,1.479,0.957
	c0.232,0.271,0.983,0.492,1.671,0.492c0.687,0,1.358-0.444,1.491-0.986c0.133-0.543,0.32-1.306,0.415-1.695
	c0.096-0.39,0.409-1.147,0.698-1.686c0.288-0.537,1.123-0.959,1.856-0.938c0.733,0.021,1.673-0.562,2.09-1.295
	c0.416-0.734,1.657-1.334,2.757-1.334h0.652c1.1,0,2.841,0.319,3.87,0.71l0.094,0.035c1.029,0.391,2.418,0.921,3.088,1.179
	c0.67,0.26,1.949,0.826,2.843,1.262c0.895,0.435,1.575,0.784,1.511,0.777c-0.063-0.008,0.779,0.092,1.871,0.22
	c0,0,0.848,0.1,1.514,0.1c0.666,0,1.124,0.252,1.124,0.252c0.963,0.531,1.976,1.525,2.251,2.208
	c0.275,0.684,0.875,1.243,1.334,1.243c0.458,0,0.834,0.266,0.834,0.591c0,0.325,0.581,0.118,1.291-0.461
	c0.71-0.578,1.75-1.036,2.311-1.019c0.56,0.018,1.395,0.029,1.854,0.025c0.459-0.004,1.182,0.343,1.605,0.768
	c0.424,0.427,1.409,0.623,2.188,0.436c0.779-0.188,1.646-0.721,1.927-1.186c0.28-0.464,0.646-1.109,0.812-1.434
	c0.167-0.325,1.203-0.616,2.302-0.646l0.211-0.006c1.099-0.03,2.251,0.121,2.56,0.336c0.31,0.216,0.759,0.888,1,1.492
	c0.242,0.607,1.076,1.103,1.855,1.103c0.779,0,1.416-0.371,1.416-0.825c0-0.455,0.895-0.73,1.989-0.613l3.313,0.355
	c1.094,0.117,1.989,0.4,1.989,0.63s0.9,0.424,2,0.433l0.709,0.005c1.1,0.009,2.6-0.415,3.334-0.94
	c0.734-0.526,1.821-1.519,2.417-2.204c0.596-0.686,1.083-1.452,1.083-1.702c0-0.251,0.815-0.543,1.812-0.648
	c0.998-0.105,2.429,0.464,3.181,1.267l1.046,1.116c0.752,0.803,1.989,2.11,2.749,2.905c0,0,0.211,0.223,3.711,1.737
	c0.463,0.201,0.643,0.724,0.643,0.724c0.357,1.04,0.695,2.391,0.754,3.001c0.057,0.61-0.383,1.185-0.979,1.275
	c-0.595,0.092-1.345,0.43-1.668,0.75c-0.32,0.321-0.47,0.996-0.333,1.5c0.138,0.505,0.888,0.954,1.667,1
	c0.78,0.047,1.679-0.104,2-0.333c0.321-0.229,1.221-0.417,1.999-0.417c0.78,0,1.783,0.176,2.23,0.391
	c0.447,0.216,1.3-0.134,1.895-0.775c0.596-0.641,1.459-1.504,1.917-1.916c0.458-0.412,0.833-1.2,0.833-1.75
	c0-0.55,0.15-1.112,0.334-1.25c0.183-0.138,0.333,0.65,0.333,1.75v0.5c0,1.099,0.413,2.3,0.917,2.666
	c0.503,0.367,0.916,0.329,0.916-0.083c0-0.412,0.375-1.162,0.834-1.667c0.458-0.504,0.833-1.479,0.833-2.166
	s-0.337-1.325-0.75-1.417c-0.412-0.092-0.825-0.917-0.917-1.834l-0.166-0.833c-0.167-0.833-0.248-1.21-0.248-1.21
	c-0.23-1.076-0.944-1.956-1.586-1.956c-0.641,0-1.541-0.151-2-0.334c-0.458-0.183-0.833-0.558-0.833-0.833
	c0-0.275-0.15-0.5-0.333-0.5c-0.184,0-0.409,0.225-0.5,0.5c-0.092,0.275-0.58,0.5-1.084,0.5c-0.503,0-0.954-0.338-1-0.75
	c-0.045-0.412,0.643-1.282,1.531-1.933c0,0,0.886-0.65,1.386-1.15s0.971-1.285,0.971-1.285c0.567-0.943,1.704-2.09,2.529-2.549
	c0.826-0.458,2.326-0.833,3.334-0.833h0.666h4.5h3.167c0.641,0,1.503-0.338,1.916-0.75c0.412-0.412,0.084-1.355-0.73-2.096
	c0,0-0.353-0.321,2.647-0.321s3.188,0.15,3.417,0.334c0.228,0.183,0.603,0.521,0.833,0.75c0.229,0.229-0.071,0.903-0.667,1.5
	c-0.595,0.596-1.533,1.608-2.083,2.25c-0.549,0.641-1.044,2.064-1.099,3.163l-0.301,6.006c-0.055,1.099,0.275,1.659,0.733,1.247
	c0.459-0.412,0.684-1.125,0.5-1.583c-0.183-0.458,0.192-0.87,0.834-0.917c0.641-0.046,1.465-0.833,1.833-1.75
	c0.367-0.916,0.667-2.567,0.667-3.666v-1c0-1.1,0.45-2.375,1-2.834c0.549-0.458,1.674-0.833,2.501-0.833
	c0.824,0,2.358-0.267,3.409-0.593l1.014-0.314c1.051-0.327,2.599-1.173,3.439-1.881l0.107-0.091
	c0.841-0.708,2.017-1.288,2.613-1.288c0.595,0,1.382-0.525,1.75-1.166c0.366-0.642,0.667-1.992,0.667-3
	c0-1.009,0.824-1.609,1.833-1.334l0.5-0.5c0.5-0.5,0.833,0.667,1.333,0.667s1.661,1.016,1.661,1.016
	c0.828,0.725,1.806,1.354,2.173,1.401c0.365,0.046,1.202-0.64,1.858-1.522c0,0,0.975-1.311,2.308-1.687
	c1.334-0.375-0.046-1.37-0.046-1.37c-0.892-0.645-2.071-1.171-2.62-1.171c-0.551,0-1.339-0.3-1.75-0.667
	c-0.413-0.367-0.076-0.292,0.75,0.166l-0.5-0.833c-0.5-0.833-0.603-0.867-0.603-0.867c-1.044-0.348-2.348-0.896-2.897-1.216
	c-0.551-0.32-1.264-0.846-1.584-1.167c-0.32-0.32-1.108-0.958-1.75-1.416c-0.642-0.459-1.992-0.834-3-0.834
	c-1.008,0-2.321,0.713-2.916,1.584c-0.597,0.87-1.385,1.658-1.75,1.75c-0.367,0.091-0.817-0.021-1-0.25
	c-0.185-0.229-1.228-0.528-2.319-0.665c0,0-2.015-0.252-3.181-0.252c-1.168,0-3.086-1.919-3.086-1.919
	c-0.778-0.777-2.315-1.414-3.414-1.414h-2.667c-1.099,0-2.699-0.567-3.554-1.259l-0.391-0.316c-0.855-0.692-2.447-1.37-3.539-1.507
	l-4.031-0.504c-1.092-0.137-2.862-0.051-3.936,0.189l-4.264,0.957c-1.074,0.24-2.477,0.738-3.118,1.105
	c-0.641,0.366-1.466,0.366-1.833,0c-0.367-0.367-1.267-0.892-2-1.167c-0.733-0.275-1.334-1.062-1.334-1.749s-0.899-1.25-2-1.25
	h-0.167c-1.1,0-2.413,0.263-2.917,0.583c-0.504,0.32-1.517,0.546-2.25,0.5c-0.733-0.046-1.67-0.308-2.083-0.583
	c-0.413-0.276-1.5-0.5-2.417-0.5h-3.667h-0.332h-2.834c-0.458,0-0.946-0.359-1.084-0.799c-0.138-0.439,0.126-0.799,0.584-0.799
	c0.459,0,1.284-0.354,1.834-0.785c0.55-0.431,1.525-1.084,2.166-1.451c0.641-0.366,1.166-1.074,1.166-1.574
	c0-0.499-0.89-1.043-1.977-1.208c0,0-1.189-0.181-1.855,0.3c-0.668,0.482-1.528,0.336-1.528,0.336
	c-1.085-0.184-2.047-0.586-2.139-0.891c-0.092-0.305-0.692-0.946-1.334-1.426s-1.956-0.438-2.92,0.093l-0.994,0.546
	c-0.964,0.529-2.65,1.029-3.748,1.109l-1.176,0.087c-1.098,0.08-2.408,0.146-2.912,0.146s-0.917,0.25-0.917,0.557
	c0,0.305-0.712,0.555-1.583,0.555h-2.335c-0.414,0-0.752,0.233-0.752,0.52c0,0.284-0.412,0.518-0.915,0.518s-1.14,0.338-1.415,0.75
	c-0.275,0.412-0.575,0.99-0.666,1.284c-0.091,0.295-1.066,0.535-2.166,0.535h-2c-1.1,0-2.263,0.435-2.584,0.965
	s-0.359,1.265-0.084,1.632c0.275,0.367,0.425,0.854,0.334,1.084c-0.091,0.229-0.579,0.117-1.083-0.25
	c-0.504-0.367-1.33-0.63-1.834-0.584c-0.504,0.046-1.404,0.57-2,1.166s-1.27,1.383-1.5,1.75c-0.229,0.367-0.417,1.005-0.417,1.417
	c0,0.412,0.337,0.825,0.75,0.917s0.712,0.505,0.667,0.917c-0.045,0.412-0.27,1.088-0.5,1.5c-0.229,0.412-0.792,1.013-1.25,1.333
	c-0.458,0.32-1.095-0.129-1.416-1c-0.321-0.871-0.733-1.996-0.917-2.5c-0.184-0.504-0.259-1.442-0.167-2.084
	c0.092-0.642-0.17-1.954-0.583-2.916c-0.413-0.962-1.2-1.675-1.75-1.583c-0.55,0.092-1.15,0.654-1.333,1.25
	c-0.183,0.596-0.711,1.308-1.173,1.583c-0.462,0.275-0.7,0.949-0.528,1.5c0.171,0.551,0.661,1.413,1.09,1.917
	c0.428,0.504,0.666,1.254,0.528,1.666c-0.138,0.412-0.558,0.3-0.935-0.25c-0.376-0.55-0.977-1.112-1.334-1.25
	c-0.356-0.138-1.061-0.324-1.565-0.416c-0.504-0.092-1.179-0.354-1.5-0.583s-1.484-0.417-2.584-0.417s-1.925,0.413-1.833,0.917
	c0.092,0.504-0.433,1.141-1.166,1.417c-0.733,0.275-1.821,0.5-2.417,0.5c-0.596,0-1.384-0.225-1.75-0.5
	c-0.366-0.276-1.193-0.538-1.837-0.584c-0.644-0.046-1.85,0.506-2.681,1.228l-1.972,1.711c-0.83,0.722-1.772,1.124-2.093,0.895
	c-0.321-0.229-0.621-0.904-0.667-1.5s-0.421-1.346-0.834-1.666c-0.413-0.32-0.862-0.283-1,0.083s-0.25,1.191-0.25,1.833
	s-0.225,1.467-0.5,1.834c-0.275,0.367-0.875,0.704-1.333,0.75c-0.458,0.046-1.17-0.442-1.583-1.084
	c-0.413-0.642-0.75-1.43-0.75-1.75c0-0.32-0.375-0.883-0.833-1.25c-0.458-0.367-0.758-0.93-0.667-1.25
	c0.091-0.32-0.734-0.583-1.834-0.583h-0.832c-1.1,0-2.6-0.15-3.334-0.333c-0.734-0.184-1.596-0.783-1.917-1.334
	c-0.321-0.551-1.483-1.001-2.583-1.001h-5.244c-1.1,0-2.656,0.601-3.457,1.334c-0.801,0.733-2.096,1.409-2.878,1.501
	c-0.782,0.092-1.768,0.804-2.192,1.583c-0.425,0.779-0.772,1.852-0.772,2.383c0,0.531-0.784,1.409-1.742,1.949l-0.901,0.508
	c-0.958,0.54-1.871,1.538-2.028,2.218c-0.157,0.681-1.106,1.607-2.108,2.061l-2.522,1.142c-1.002,0.453-1.897,1.162-1.989,1.574
	c-0.092,0.412,0.133,1.2,0.5,1.75c0.367,0.55,0.629,1.45,0.583,2c-0.046,0.55,0.666,1.208,1.583,1.461
	c0.917,0.254,2.246,0.292,2.953,0.084c0.708-0.209,1.286,0.259,1.286,1.038c0,0.779,0.397,1.68,0.881,2
	c0.485,0.32,0.769,1.033,0.631,1.583c-0.138,0.55,0.05,0.55,0.416,0c0.366-0.55,1.215-1.713,1.887-2.584l0.058-0.075
	c0.672-0.871,1.709-1.584,2.305-1.584c0.596,0,1.009-0.62,0.917-1.378c-0.092-0.759-0.58-1.792-1.084-2.296
	c-0.504-0.504-0.372-1.633,0.294-2.509l0.578-0.76c0.666-0.876,1.505-1.592,1.865-1.592c0.36,0,0.655-0.537,0.655-1.194
	c0-0.657,0.231-1.607,0.512-2.111c0.282-0.504,0.886-1.233,1.341-1.617c0.456-0.385,0.828-0.144,0.828,0.536
	c0,0.68,0.605,1.193,1.344,1.141v0.096c0,0.094-0.539,1.319-0.539,1.319c-0.442,1.007-1.215,1.831-1.716,1.831
	c-0.501,0-0.911,0.888-0.911,1.972c0,1.084,0.247,2.534,0.548,3.222c0.301,0.688,0.874,1.25,1.273,1.25
	c0.399,0,1.203-0.037,1.785-0.083c0.583-0.046,1.36-0.083,1.727-0.083c0.367,0,0.667,0.188,0.667,0.417s-0.517,0.417-1.148,0.417
	c-0.632,0-1.872-0.075-2.756-0.168l0.451,0.5c0.453,0.5,0.357,1.032,0.357,1.032c-0.196,1.082-0.357,2.118-0.357,2.302
	c0,0.183-0.611,0.146-1.358-0.083c-0.746-0.229-1.245-1.31-1.107-2.401c0,0,0.084-0.668-0.25,0.241
	c-0.332,0.909-0.779,2.485-0.779,2.485c-0.3,1.058-0.403,2.4-0.229,2.984c0.174,0.582-0.24,1.258-0.921,1.5
	c-0.68,0.242-1.987,0.242-2.904,0s-2.567-0.439-3.667-0.439h-0.832c-1.1,0-2.038-0.439-2.084-0.976
	c-0.045-0.537-0.308-1.427-0.583-1.977c-0.275-0.55-0.8-0.888-1.167-0.75c-0.366,0.138-0.666,1.027-0.666,1.977
	c0,0.949-0.075,2.262-0.167,2.916c-0.092,0.654-0.804,1.302-1.583,1.439c-0.78,0.138-2.167-0.05-3.084-0.416v0.666
	c0,0.668-3.513,4.666-3.513,4.666c-0.726,0.826-2.197,1.703-3.27,1.948l-0.363,0.083c-1.072,0.245-1.375,1.139-0.671,1.984
	l0.373,0.448c0.703,0.846,1.316,2.101,1.361,2.788c0.045,0.688-0.254,1.25-0.667,1.25c-0.413,0-1.109,0.224-1.548,0.5
	c-0.439,0.275-1.564,0.5-2.5,0.5c-0.936,0-2.242,0.037-2.902,0.083c-0.66,0.046-1.22,0.982-1.245,2.082l-0.067,2.996
	c-0.025,1.1,0.11,2.479,0.299,3.069c0.189,0.589,0.915,1.077,1.612,1.086c0.697,0.009,1.493,0.016,1.768,0.016
	c0.275,0,0.575,0.225,0.666,0.5C17.685,104.172,17.882,104.601,18.031,104.851z"/>
</svg>
