<?xml version="1.0" encoding="utf-8"?>
<!-- Generator: Adobe Illustrator 17.0.0, SVG Export Plug-In . SVG Version: 6.00 Build 0)  -->
<!DOCTYPE svg PUBLIC "-//W3C//DTD SVG 1.1//EN" "http://www.w3.org/Graphics/SVG/1.1/DTD/svg11.dtd">
<svg version="1.1" id="Layer_1" xmlns="http://www.w3.org/2000/svg" xmlns:xlink="http://www.w3.org/1999/xlink" x="0px" y="0px"
	 width="235px" height="148px" viewBox="0 0 235 148" enable-background="new 0 0 235 148" xml:space="preserve">
<path fill="#12a3ff" d="M112.149,105.14l-4-8c0,0-5.667-8.666-7-9.666c-1.334-1-2.668-12-1.668-15l1-3h-1.349h-3.317V66.14l-2.334-1.334l-1.666-4
	l-3-3.666l-1.666-3.333l-1.334,2.333v-3.666h-1.666h-2l-4.668-3.667h-5.332h-1.334h-2h-2l-2.295,3.968l1.963,1.472v1.308H64.52
	l-0.816-1.799H63.05l-1.309,0.328v1.635l-1.635,0.164l-1.799,0.326v1.309l-1.145-1.473l1.962-1.471l1.144-2.126l-0.817-1.799h-1.308
	l-0.981-1.842h-1.309l-1.963-0.774v-1.963h-0.98l0.817-1.308l2.289-1.146l0.981-0.816v-1.145h-4.088l-1.309-2.127l-0.98-1.308h1.471
	h1.963h1.472h1.308l-0.49-0.817l-1.309-1.473l0.818-2.615l1.472-2.127l2.126-1.308h1.472l1.145-0.817h2.452l2.944,0.817l7.849,0.163
	l0.327,0.818h2.29v0.817h3.455l1.287,0.982l0.654,0.654l3.106-0.164l0.163,0.98h2.453l1.963-1.471l-0.215-0.486l0.701,0.07
	l0.211,1.053h1.754l0.07-0.631l1.475-0.352l0.069-1.403l1.896-0.07l0.701,0.702l1.123-0.07l0.771,0.842l3.579,0.211l0.28,0.771
	h2.105l0.07,1.123L107.71,34l0.491-2.315l1.896-0.141l0.28-1.123l-0.773-0.842l-2.456,0.28l-0.421-1.192l-0.771-0.843l-0.562-0.772
	V26.14h-1.403l-0.422,0.422l0.141,1.613l-0.842,0.492h-1.895l-1.614-0.912l-0.982-0.703l-0.421-0.912h1.123l0.701-1.473l0.351-0.772
	c0,0,2.105-0.702,2.315-0.702h3.58l1.122,0.632l0.421,0.351l-0.56,0.912c0,0,0,0.772,0.21,0.772h1.685l6.176,0.351l0.982,1.965
	l0.983-0.631v-1.123l1.401-0.211v-1.333l1.123,0.141l0.492,3.087l2.877,2.808v2.667l-0.561,0.771l-0.702,0.491l-0.49-0.351
	l-1.123-0.422h-1.824h-2.176l-0.842,1.334l-0.281,0.351l-0.421,0.211c0,0-0.982,0.211-1.053,0c-0.07-0.211-0.772-0.632-0.772-0.632
	l-0.28-0.421l-0.351-0.21h-1.544l-0.491,0.42l-1.684,0.843c0,0-0.281,0.982,0.069,0.982h3.298c0,0,0.07-0.982,0.351-0.982
	c0.281,0,1.192,1.052,1.192,1.052l1.054,0.982l0.42,0.281l0.422-1.474l1.473-0.772c0,0,1.053-0.14,1.615-0.14h2.315
	c0,0-0.21-0.772,0-0.772c0.21,0,1.685,0.422,1.685,0.422s-0.211,0.07,0.07,0.701c0.28,0.632,1.543,0.772,1.543,0.772l0.281-0.912
	l2.456-0.28l0.841,0.07v-0.772l-0.771-0.141l-0.351-0.35c0,0,0.14-0.632,0.351-0.773c0.211-0.141,1.123-0.561,1.123-0.561
	s0.351,0.141,0.631,0.421c0.281,0.28,0.562,0.351,0.562,0.772v1.333l1.614-0.07l0.771-0.702l0.28-0.912l-1.123-0.701l-0.842-1.754
	v-3.51l-0.28-2.596l1.685-0.702c0,0,2.525-0.632,2.736-0.632c0.211,0,0.982,0.983,0.982,0.983v0.771l-1.753,0.633l-1.265,0.631
	l-0.771,0.842l0.49,0.842l1.053,0.281v1.475l1.404,2.105l0.28,1.123l2.878,0.14l1.332,1.965l1.193-0.21c0,0,0.702,0.069,0.702-0.28
	c0-0.352-0.422-0.842,0-0.842c0.421,0,1.122-0.843,1.122-1.053c0-0.211-0.28-1.193-0.28-1.193l-0.982-0.141l-0.491-0.982
	l-1.122-0.351c0,0-0.422,0.351-0.632-0.49c-0.211-0.842-0.842-1.264-0.842-1.264s-0.069-0.912,0-1.123
	c0.069-0.21,0-1.684,0.21-1.965c0.21-0.28,0.561-1.053,0.561-1.053h1.193l0.14,1.264h1.192l-0.069,1.613c0,0,0,1.123,0.21,1.123
	c0.211,0,0.912-0.141,0.912-0.141l0.352-1.192v-1.403l1.333-0.491v-0.702l0.702,0.07l0.702,0.982h3.438
	c0.982,0,4.632,3.018,4.632,3.018l4.631,0.422l1.474,1.684l0.422,3.438l-1.475,0.843l0.07,0.982l3.369,0.701h0.982
	c0,0,0.28,1.264,0.631,1.264h2.176v1.824c0,0-1.123,0.56-1.333,0.631c-0.21,0.07-1.544,2.035-1.544,2.035s-0.07,0.772-0.772,0.281
	c-0.701-0.491-2.034-2.035-2.034-2.035l-0.492-0.562l-0.349,0.983c0,0-0.282,0.491,0.209,0.632c0.491,0.141,1.965,1.965,1.965,1.965
	l0.843,0.983l-1.334,1.193h-2.526l-0.49,2.176l-1.054-0.422l-0.491-1.264l-3.018-1.754l-0.28-1.403l-1.193-0.843l-3.089-0.21
	l-0.069-0.562l0.352-0.841h0.49l0.07,0.42h1.685l0.772-1.755l0.28-1.824c0,0,0.351-1.193,0.42-1.474
	c0.071-0.28,0.562-1.122,0.562-1.122l-0.562-0.843l-1.964-1.192l-2.176-0.843l-2.666-1.263l-1.895,0.49l-0.702,1.193
	c0,0,0.28,1.264,0.772,1.264h1.964l0.352,0.631l-0.352,0.492l-0.562,0.351h-1.122l-0.982,2.245l-0.421,1.334l-2.035,0.982
	l-0.632,1.053c0,0,0.982,0.351,1.263,0.351c0.282,0,2.105,1.965,2.105,1.965l1.614,0.07l-0.982,1.052h-1.192l-3.369,0.281
	l-1.474-0.491l-0.069-0.632c0,0-0.001-0.982,0.069-1.333c0.07-0.351,0.07-0.912,0.07-0.912s-0.07-0.912-0.773-0.49
	c-0.701,0.42-1.333,0.49-1.333,0.49l0.351,1.474l-1.053,0.281h-1.263l-0.772,1.965l-2.666,1.193l-0.562,1.613l-0.35,0.983
	l-1.123,2.596l-0.771-0.28l0.14,1.053c0,0,1.053,0.21,1.333,0.21c0.281,0,1.264,1.053,1.264,1.053l0.771,1.823h1.264h2.736
	l1.685,1.756l1.123,2.244c0,0,2.104-0.49,2.385-0.49c0.282,0,1.755,1.123,1.755,1.123l0.562,3.711l1.473,0.779l1.193,0.211
	l0.142-4.141l1.823-1.543l0.982-2.246l-0.421-2.736l-1.614-0.352l-0.49-2.807l1.122,0.141l0.141-3.93l1.052-0.771l1.405-0.07v1.402
	h2.245c0.28,0,1.543-0.279,1.543-0.279s0.141,1.684,0.352,1.684c0.21,0,1.754-0.14,1.754-0.14l0.772,2.315v1.824l1.053,0.421
	l1.334-0.351l0.28-0.702c0,0,0.491-1.474,0.702-1.474s1.684-0.281,1.684-0.281l1.053,0.352l1.334,4.141l2.035,3.088
	c0,0,1.613,2.455,2.877,2.455c1.263,0,2.386,1.686,2.386,1.686l-1.193,2.314l-1.965,2.176l-2.737,0.141l-4,0.631l-1.192,0.703
	l-1.333,0.211l0.07,2.174l2.245-0.631c0,0-0.21-0.352,0.21-0.352c0.422,0,1.895-0.209,1.895-0.209s-0.141,1.262-0.141,1.473
	c0,0.211,0.421,1.334,0.421,1.334l2.387,0.07l-0.773,1.332h2.737l-1.825,1.826l-1.192,1.262h-1.404l-1.965,0.071l-0.631-1.474
	l-0.843-1.545c0,0-0.772,0.492-0.491,0.771c0.281,0.281,0.281,2.247,0.281,2.247s-0.141,0.562,0.28,0.771
	c0.421,0.211,1.123,1.334,1.123,1.334l-0.561,0.492c0,0-0.281,0.139-0.562,0.139h-0.562l-0.982-0.139l-0.421-1.053l-1.263-0.703
	c0,0-0.843,0.633-0.843,0.844c0,0.209-0.421,1.613-0.421,1.613l-1.613,0.279l-1.263,0.633l-0.28,3.158l-2.246,1.824l0.561,3.648
	l-2.455,0.912l-0.982,3.088l-0.982,2.176v3.719l0.771,0.912l-0.211,2.527l-1.473,0.07c0,0-2.527-1.965-2.527-2.598
	c0-0.631-0.21-2.385-0.21-2.385l-0.633-0.771l-1.052-0.07l-3.509-1.193v1.543l-1.895,0.281l-4.702-0.982l-0.49-0.211l-0.633,1.615
	l-1.402,0.209l-1.123,3.791v1.895c0,0.842-0.141,3.649-0.141,3.649l0.281,1.334h0.631l0.352,1.613l0.982,1.053h1.123l0.35,0.842
	h1.122c0,0,0.701-0.07,0.912,0c0.211,0.07,1.615-0.561,1.615-0.771c0-0.211-0.071-1.332,0.14-1.613
	c0.211-0.281,0.702-0.422,0.913-0.771c0.21-0.352,1.824-1.053,2.035-1.264c0.21-0.211,1.473-1.123,1.473-1.123s0,1.053,0.142,1.613
	c0.14,0.562-0.071,5.615-0.071,5.615l0.492,0.561c0,0,0.701,0.07,0.701,0.842c0,0.773-0.701,6.598-0.701,6.598l1.122,1.613
	l-0.421,0.281h-1.544c0,0-1.123-0.771-1.333-0.842c-0.211-0.07-1.895-1.263-1.895-1.756v-2.035c0-0.279-0.422-1.402-0.422-1.402
	l-2.666-0.141c0,0-1.544-0.771-1.544-0.982c0-0.211-0.982-1.193-0.982-1.193l-1.755-1.193h-3.578h-2.316l-0.421-0.49
	c0,0,0.491-0.912,0.491-1.334c0-0.42-0.632-1.053-0.632-1.053l-2.175-1.824l-0.07-1.264l0.701-0.49c0,0-0.07-0.771-0.211-1.053
	c-0.14-0.281-2.385-4.912-2.385-4.912l-0.422-0.562l-1.895-1.965l-0.842-0.771c0,0-0.772-1.475-0.772-1.193v2.947
	c0,0,0.211,1.193,0.351,1.404c0.141,0.211,0.141,1.613,0.141,1.613v0.771v0.352l-0.141,0.631h-0.771L112.149,105.14z"/>
</svg>
