<?xml version="1.0" encoding="utf-8"?>
<!-- Generator: Adobe Illustrator 17.0.0, SVG Export Plug-In . SVG Version: 6.00 Build 0)  -->
<!DOCTYPE svg PUBLIC "-//W3C//DTD SVG 1.1//EN" "http://www.w3.org/Graphics/SVG/1.1/DTD/svg11.dtd">
<svg version="1.1" id="Layer_1" xmlns="http://www.w3.org/2000/svg" xmlns:xlink="http://www.w3.org/1999/xlink" x="0px" y="0px"
	 width="235px" height="148px" viewBox="0 0 235 148" enable-background="new 0 0 235 148" xml:space="preserve">
<path fill="#12a3ff" d="M100.345,119.741c1.13,0,2.262-7.07,4.665-7.354c2.403-0.281,1.414-6.928,1.414-6.928l1.414-1.979h0.707v-1.414
	l-0.989-1.697l0.989-1.131l2.263-0.707l2.12-1.838l2.97-1.131v-3.818l3.535-1.271l2.545-2.828l2.12-1.838l1.272-7.353l4.949-4.1
	l3.959-0.707v-2.828l1.555-2.404v-2.262l2.828-0.848v-4.949l3.393-4.383c0,0,1.414-0.566,0.99-3.395
	c-0.424-2.828-2.686-1.272-3.676-1.272s-2.121-3.252-2.121-3.252l-4.949-0.707l-1.838-2.403c0,0-3.252,0-3.817,1.272
	c-0.565,1.272-1.414-0.707-1.414-0.707l0.425-5.231l-2.688-2.545l-4.1-1.274l-1.838-0.707l-0.707-2.827l-3.253-2.263h-5.938
	l-2.262-2.403h-2.828l-3.252,1.272l-0.566,1.414l-2.827,0.99h-3.252c0,0-0.989,1.414,0.849,1.696s2.121,2.121,2.121,3.11
	c0,0.99-0.143,3.677-0.143,3.677v3.534l-3.094,1.414v2.404l0.832,0.141l-0.832,1.556v3.253c0,0,1.115,0.424,1.539,0.424
	c0.424,0,1.131,3.111,1.131,3.111l2.969,6.645c0,0,2.121,1.555,3.253,5.656c1.132,4.1,0.425,15.695,0.425,15.695
	s-1.98,7.916-3.959,9.473c-0.645,1.078,0.424,7.777,0.424,7.777l0.708,0.281v1.98v1.414l-1.132,0.707l0.141,1.271l-0.141,2.688
	l-0.99,1.413c0,0,0.283,1.131,0.707,1.131c0.424,0,0.848,2.969,0.848,2.969l0.863,2.086
	C98.662,117.444,99.214,119.741,100.345,119.741z"/>
</svg>
