<?xml version="1.0" encoding="utf-8"?>
<!-- Generator: Adobe Illustrator 17.0.0, SVG Export Plug-In . SVG Version: 6.00 Build 0)  -->
<!DOCTYPE svg PUBLIC "-//W3C//DTD SVG 1.1//EN" "http://www.w3.org/Graphics/SVG/1.1/DTD/svg11.dtd">
<svg version="1.1" id="Layer_1" xmlns="http://www.w3.org/2000/svg" xmlns:xlink="http://www.w3.org/1999/xlink" x="0px" y="0px"
	 width="235px" height="148px" viewBox="0 0 235 148" enable-background="new 0 0 235 148" xml:space="preserve">
<path fill="#ffffff" d="M154.076,20.541H80.925c-11.81,0-21.417,9.648-21.417,21.51V86.78c0,11.862,9.608,21.51,21.417,21.51h50.499
	l18.252,18.329c0.546,0.549,1.276,0.84,2.02,0.84c0.367,0,0.739-0.071,1.092-0.218c1.067-0.444,1.763-1.491,1.763-2.65v-16.306
	c11.592-0.255,20.943-9.804,20.943-21.505V42.051C175.493,30.189,165.885,20.541,154.076,20.541z M169.782,86.78
	c0,8.697-7.046,15.775-15.706,15.775h-2.382c-1.577,0-2.855,1.283-2.855,2.868v12.246l-14.213-14.274
	c-0.535-0.537-1.262-0.84-2.019-0.84H80.925c-8.66,0-15.706-7.078-15.706-15.775V42.051c0-8.699,7.046-15.774,15.706-15.774h73.151
	c8.661,0,15.706,7.075,15.706,15.774V86.78z"/>
<path fill="#ffffff" d="M90.727,58.173c-3.549,0-6.425,2.89-6.425,6.453c0,3.566,2.876,6.453,6.425,6.453
	c3.547,0,6.425-2.888,6.425-6.453C97.153,61.063,94.275,58.173,90.727,58.173z"/>
<path fill="#ffffff" d="M117.5,58.173c-3.549,0-6.425,2.89-6.425,6.453c0,3.566,2.877,6.453,6.425,6.453
	c3.547,0,6.425-2.888,6.425-6.453C123.925,61.063,121.047,58.173,117.5,58.173z"/>
<path fill="#ffffff" d="M144.272,58.173c-3.549,0-6.426,2.89-6.426,6.453c0,3.566,2.877,6.453,6.426,6.453
	c3.547,0,6.424-2.888,6.424-6.453C150.697,61.063,147.819,58.173,144.272,58.173z"/>
</svg>
