<?xml version="1.0" encoding="utf-8"?>
<!-- Generator: Adobe Illustrator 17.0.0, SVG Export Plug-In . SVG Version: 6.00 Build 0)  -->
<!DOCTYPE svg PUBLIC "-//W3C//DTD SVG 1.1//EN" "http://www.w3.org/Graphics/SVG/1.1/DTD/svg11.dtd">
<svg version="1.1" id="Layer_1" xmlns="http://www.w3.org/2000/svg" xmlns:xlink="http://www.w3.org/1999/xlink" x="0px" y="0px"
	 width="235px" height="148px" viewBox="0 0 235 148" enable-background="new 0 0 235 148" xml:space="preserve">
<path fill="#ffffff" d="M160.458,13.546H120.02c-8.509,0-15.432,6.884-15.432,15.345v19.507c0,7.296,5.202,13.459,12.111,14.981
	v13.701c0,1.373,0.887,2.595,2.202,3.023c0.328,0.105,0.662,0.159,0.997,0.159c0.996,0,1.962-0.466,2.578-1.296l11.274-15.224
	h26.709c8.506,0,15.428-6.883,15.428-15.345V28.891C175.886,20.43,168.965,13.546,160.458,13.546z M169.489,48.399
	c0,4.954-4.052,8.983-9.031,8.983h-28.327c-1.016,0-1.971,0.481-2.574,1.295l-6.46,8.723v-6.843c0-1.742-1.412-3.162-3.167-3.181
	c-4.93-0.047-8.944-4.076-8.944-8.977V28.891c0-4.955,4.051-8.983,9.034-8.983h40.438c4.979,0,9.031,4.029,9.031,8.983V48.399z"/>
<path fill="#ffffff" d="M97.122,90.09c8.21,0,14.889-6.641,14.889-14.804c0-8.166-6.679-14.807-14.889-14.807
	c-8.213,0-14.892,6.641-14.892,14.807C82.23,83.449,88.909,90.09,97.122,90.09z M97.122,66.84c4.683,0,8.491,3.79,8.491,8.446
	c0,4.656-3.808,8.443-8.491,8.443c-4.683,0-8.494-3.787-8.494-8.443C88.628,70.63,92.439,66.84,97.122,66.84z"/>
<path fill="#ffffff" d="M97.122,90.718c-11.705,0-21.223,9.467-21.223,21.104v19.451c0,1.755,1.431,3.181,3.199,3.181h36.049
	c1.765,0,3.199-1.426,3.199-3.181v-19.451C118.346,100.185,108.824,90.718,97.122,90.718z M111.948,128.093H82.296v-16.271
	c0-8.129,6.651-14.742,14.826-14.742c8.175,0,14.826,6.613,14.826,14.742V128.093z"/>
<path fill="#ffffff" d="M122.378,34.843c-2.649,0-4.798,2.138-4.798,4.772c0,2.637,2.149,4.771,4.798,4.771
	c2.649,0,4.798-2.134,4.798-4.771C127.176,36.98,125.027,34.843,122.378,34.843z"/>
<path fill="#ffffff" d="M140.237,34.843c-2.649,0-4.798,2.138-4.798,4.772c0,2.637,2.15,4.771,4.798,4.771
	c2.652,0,4.798-2.134,4.798-4.771C145.035,36.98,142.889,34.843,140.237,34.843z"/>
<path fill="#ffffff" d="M158.1,34.843c-2.652,0-4.799,2.138-4.799,4.772c0,2.637,2.146,4.771,4.799,4.771
	c2.649,0,4.798-2.134,4.798-4.771C162.898,36.98,160.749,34.843,158.1,34.843z"/>
</svg>
