<?xml version="1.0" encoding="utf-8"?>
<!-- Generator: Adobe Illustrator 17.0.0, SVG Export Plug-In . SVG Version: 6.00 Build 0)  -->
<!DOCTYPE svg PUBLIC "-//W3C//DTD SVG 1.1//EN" "http://www.w3.org/Graphics/SVG/1.1/DTD/svg11.dtd">
<svg version="1.1" id="Layer_1" xmlns="http://www.w3.org/2000/svg" xmlns:xlink="http://www.w3.org/1999/xlink" x="0px" y="0px"
	 width="235px" height="148px" viewBox="0 0 235 148" enable-background="new 0 0 235 148" xml:space="preserve">
<path fill="#ffffff" d="M160.511,21.49h-74.68c-1.198,0-2.169,0.967-2.169,2.16v42.921h-19.8c-1.198,0-2.169,0.967-2.169,2.159
	v36.594c0,7.219,5.9,13.092,13.153,13.092c0.187,0,74.68,0,74.68,0c7.253,0,13.154-5.873,13.154-13.092V23.65
	C162.68,22.457,161.71,21.49,160.511,21.49z M66.031,105.324V70.889h17.63v34.435c0,4.838-3.954,8.774-8.816,8.774
	C69.986,114.098,66.031,110.162,66.031,105.324z M158.342,105.324c0,4.838-3.954,8.774-8.815,8.774H84.601
	c2.111-2.323,3.399-5.402,3.399-8.774V25.809h70.342V105.324L158.342,105.324z"/>
<path fill="#ffffff" d="M120.124,46.428h27.803c1.198,0,2.169-0.966,2.169-2.159c0-1.193-0.971-2.159-2.169-2.159h-27.803
	c-1.198,0-2.169,0.966-2.169,2.159C117.955,45.461,118.926,46.428,120.124,46.428z"/>
<path fill="#ffffff" d="M120.124,70.145h27.803c1.198,0,2.169-0.966,2.169-2.159c0-1.193-0.971-2.159-2.169-2.159h-27.803
	c-1.198,0-2.169,0.966-2.169,2.159C117.955,69.179,118.926,70.145,120.124,70.145z"/>
<path fill="#ffffff" d="M120.124,93.864h27.803c1.198,0,2.169-0.967,2.169-2.159c0-1.192-0.971-2.159-2.169-2.159h-27.803
	c-1.198,0-2.169,0.967-2.169,2.159C117.955,92.898,118.926,93.864,120.124,93.864z"/>
<path fill="#ffffff" d="M100.107,48.857c0.41,0.432,0.981,0.677,1.577,0.677c0.006,0,0.012,0,0.018,0
	c0.603-0.005,1.177-0.259,1.584-0.704l11.915-12.988c0.808-0.881,0.745-2.246-0.139-3.05c-0.885-0.804-2.257-0.742-3.065,0.138
	l-10.341,11.272l-3.219-3.393c-0.823-0.867-2.196-0.905-3.067-0.087c-0.871,0.819-0.91,2.185-0.088,3.052L100.107,48.857z"/>
<path fill="#ffffff" d="M111.998,57.679L101.657,68.95l-3.219-3.392c-0.823-0.867-2.196-0.906-3.066-0.087
	c-0.871,0.818-0.91,2.184-0.088,3.051l4.823,5.083c0.41,0.432,0.981,0.677,1.577,0.677c0.006,0,0.012,0,0.018,0
	c0.603-0.006,1.177-0.26,1.584-0.703l11.915-12.988c0.807-0.881,0.745-2.246-0.139-3.05
	C114.178,56.736,112.806,56.798,111.998,57.679z"/>
<path fill="#ffffff" d="M111.998,82.428l-10.341,11.271l-3.219-3.392c-0.823-0.868-2.196-0.906-3.066-0.087
	c-0.871,0.819-0.91,2.185-0.088,3.052l4.823,5.082c0.41,0.432,0.981,0.677,1.577,0.677c0.006,0,0.012,0,0.018,0
	c0.603-0.005,1.177-0.26,1.584-0.703l11.915-12.987c0.807-0.882,0.745-2.246-0.139-3.051
	C114.178,81.485,112.806,81.547,111.998,82.428z"/>
</svg>
