<?xml version="1.0" encoding="utf-8"?>
<!-- Generator: Adobe Illustrator 17.0.0, SVG Export Plug-In . SVG Version: 6.00 Build 0)  -->
<!DOCTYPE svg PUBLIC "-//W3C//DTD SVG 1.1//EN" "http://www.w3.org/Graphics/SVG/1.1/DTD/svg11.dtd">
<svg version="1.1" id="Layer_1" xmlns="http://www.w3.org/2000/svg" xmlns:xlink="http://www.w3.org/1999/xlink" x="0px" y="0px"
	 width="235px" height="148px" viewBox="0 0 235 148" enable-background="new 0 0 235 148" xml:space="preserve">
<path fill="#ffffff" d="M172.953,54.037c-1.207-1.71-3.24-2.692-5.579-2.692h-8.901v-9.734c0-3.751-3.035-6.803-6.765-6.803h-31.201
	c-1.327,0-3.399-1.058-4.182-2.136l-2.335-3.212c-1.822-2.506-5.523-4.396-8.611-4.396H94.568c-3.398,0-6.816,2.43-7.949,5.653
	l-0.743,2.115c-0.35,0.996-1.726,1.975-2.778,1.975h-3.242c-3.73,0-6.765,3.051-6.765,6.803v61.438c0,0.326,0.059,0.636,0.162,0.926
	c0.056,1.215,0.432,2.362,1.117,3.333c1.207,1.711,3.24,2.692,5.578,2.692h68.927c4.167,0,8.51-3.098,9.886-7.053l14.875-42.727
	C174.409,58.001,174.16,55.747,172.953,54.037z M79.856,40.324h3.242c3.399,0,6.816-2.43,7.949-5.653l0.743-2.114
	c0.351-0.997,1.727-1.976,2.778-1.976h10.811c1.327,0,3.399,1.058,4.182,2.135l2.335,3.212c1.822,2.506,5.523,4.396,8.61,4.396
	h31.201c0.694,0,1.28,0.589,1.28,1.287v9.734H98.448c-4.167,0-8.509,3.098-9.886,7.053l-9.985,28.68V41.611
	C78.576,40.914,79.163,40.324,79.856,40.324z M168.459,58.398l-14.875,42.726c-0.612,1.758-2.857,3.36-4.709,3.36H79.948
	c-0.529,0-0.942-0.137-1.104-0.367c-0.162-0.23-0.155-0.667,0.021-1.17L93.739,60.22c0.612-1.758,2.857-3.359,4.709-3.359h68.927
	c0.529,0,0.942,0.137,1.105,0.367C168.642,57.458,168.634,57.895,168.459,58.398z"/>
</svg>
