<?xml version="1.0" encoding="utf-8"?>
<!-- Generator: Adobe Illustrator 17.0.0, SVG Export Plug-In . SVG Version: 6.00 Build 0)  -->
<!DOCTYPE svg PUBLIC "-//W3C//DTD SVG 1.1//EN" "http://www.w3.org/Graphics/SVG/1.1/DTD/svg11.dtd">
<svg version="1.1" id="Layer_1" xmlns="http://www.w3.org/2000/svg" xmlns:xlink="http://www.w3.org/1999/xlink" x="0px" y="0px"
	 width="235px" height="148px" viewBox="0 0 235 148" enable-background="new 0 0 235 148" xml:space="preserve">
<path fill="#ffffff" d="M157.092,103.761c-5.943-2.231-11.926-4.396-17.81-6.778c-3.164-1.282-5.981-0.965-8.846,0.67
	c-3.483,1.991-7.063,3.811-10.503,5.872c-2.737,1.639-5.216,1.572-7.984-0.03c-4.751-2.749-9.516-5.466-14.282-8.18
	c-0.974-0.549-1.964-1.106-2.927-1.647l-1.77-0.992c-0.248-0.14-0.472-0.285-0.696-0.436c-4.626-2.623-9.253-5.255-13.877-7.879
	c-0.653-0.373-1.3-0.774-1.996-1.051c-1.395-0.551-2.968-0.009-3.71,1.213c-0.758,1.241-0.569,2.923,0.522,3.913
	c0.489,0.443,1.093,0.765,1.67,1.098c2.684,1.54,8.979,5.047,8.979,5.047l-7.522,12.238h-6.35c-1.386,0-2.509,1.126-2.509,2.516
	v1.326c0,1.393,1.123,2.517,2.509,2.517h93.241c1.386,0,2.509-1.127,2.509-2.517v-1.326c0-1.392-1.123-2.516-2.509-2.516h-2.955
	C160.075,105.123,159.4,104.626,157.092,103.761z M132.117,103.676c2.483-1.347,4.979-1.507,7.678-0.311
	c2.765,1.229,5.602,2.392,8.426,3.453h-22.097C128.112,105.759,130.11,104.766,132.117,103.676z M87.496,96.33
	c0,0,12.532,6.886,18.814,10.488H81.361L87.496,96.33z"/>
<path fill="#ffffff" d="M90.793,80.895c0.16-2.872-2.099-5.334-5.007-5.451c-2.759-0.117-5.162,2.088-5.324,4.871
	c-0.17,2.944,1.981,5.416,4.863,5.585C88.183,86.064,90.632,83.824,90.793,80.895z"/>
<path fill="#ffffff" d="M119.077,16.19c-26.714,0-48.445,21.796-48.445,48.596c0,1.019,0.593,1.944,1.518,2.37c0.922,0.437,2.015,0.281,2.787-0.383
	c0.048-0.039,4.802-4.034,10.417-4.034c3.173,0,6.089,1.312,8.667,3.898c0.493,0.491,1.17,0.846,1.864,0.765
	c0.698-0.008,1.367-0.292,1.854-0.794c0.043-0.043,4.6-4.454,10.217-4.454c2.996,0,5.382,1.278,8.762,3.765v25.087
	c0,0.089,0.601,0.149,0.952,0.149c1.147,0,4.33-1.376,4.33-1.376V65.921c1.692-2.488,5.481-3.762,8.48-3.762
	c5.643,0,9.973,4.415,10.01,4.452c0.487,0.501,1.116,0.787,1.815,0.791c0.664,0.046,1.349-0.27,1.843-0.765
	c2.576-2.584,5.483-3.898,8.658-3.898c5.589,0,10.32,3.96,10.411,4.039c0.481,0.407,1.084,0.623,1.692,0.623
	c0.371,0,0.739-0.078,1.088-0.239c0.927-0.427,1.522-1.354,1.522-2.377C167.52,37.987,145.791,16.19,119.077,16.19z M107.013,23.197
	C107.006,23.2,107.006,23.2,107.013,23.197L107.013,23.197z M93.22,59.232c-0.03-0.018-0.06-0.037-0.091-0.055
	c-2.414-1.301-5.013-1.824-7.775-1.824c-3.578,0.004-6.794,1.207-9.223,2.419c1.977-17.431,14.502-31.686,30.84-36.562
	C99.521,30.173,94.223,43.384,93.22,59.232z M116.719,29.284v30.11c-3.38-1.642-5.746-2.473-8.762-2.473
	c-3.727,0-7.022,1.019-9.43,2.397c1.259-18.39,7.837-33.405,18.19-35.826v5.791H116.719z M139.788,59.377
	c-2.418-1.412-5.527-2.601-9.309-2.601c-3.013,0-6.788,0.975-8.48,2.62V29.284v-5.791c8.665,2.43,16.679,17.513,17.927,35.964
	C139.883,59.431,139.833,59.402,139.788,59.377z M152.798,57.502c-2.763,0-5.354,0.378-7.766,1.674
	c-1.002-15.775-6.076-28.927-13.48-35.898c16.25,4.928,28.495,19.199,30.467,36.562C159.59,58.626,156.37,57.502,152.798,57.502z"/>
<path fill="#ffffff" d="M93.822,91.013c5.908,3.315,11.825,6.686,17.685,10.082c1.259,0.733,2.479,1.136,3.697,1.136
	c1.194,0,2.386-0.338,3.623-1.045c3.912-2.26,7.891-4.39,11.84-6.581c1.384-0.765,2.77-1.153,4.188-1.153
	c1.136,0,2.293,0.256,3.492,0.766c4.766,2.028,9.596,3.903,14.413,5.812c0.763,0.301,1.591,0.564,2.403,0.608
	c0.05,0,0.099,0,0.149,0c1.214,0,2.132-0.778,2.498-1.903c0.407-1.267,0.037-2.674-0.983-3.383c-0.472-0.327-1.041-0.53-1.584-0.742
	c-5.772-2.21-11.594-4.307-17.306-6.662c-1.33-0.553-2.608-0.811-3.863-0.811c-1.53,0-2.888,0.389-4.432,1.118
	c-2.565,1.219-11.053,4.701-12.109,4.701c-1.186,0-2.365-0.38-3.615-1.124c-4.953-2.954-12.911-7.468-16.547-9.419
	c-3.423-1.837-6.427,1.468-6.423,4.078C90.951,88.578,92.089,90.042,93.822,91.013z"/>
</svg>
